<?xml version="1.0" encoding="UTF-8"?> <svg xmlns="http://www.w3.org/2000/svg" xmlns:xlink="http://www.w3.org/1999/xlink" width="459" height="356" viewBox="0 0 459 356"><defs><path id="a" d="M.672 0v215.076h343.767V0z"></path><path id="c" d="M0 0h344v80H0z"></path><linearGradient id="e" x1="50%" x2="50%" y1="0%" y2="127.57%"><stop offset="0%" stop-color="#673373"></stop><stop offset="100%" stop-color="#1E7135"></stop></linearGradient><linearGradient id="f" x1="50%" x2="50%" y1="0%" y2="127.57%"><stop offset="0%" stop-color="#1E7135"></stop><stop offset="100%" stop-color="#673373"></stop></linearGradient><linearGradient id="g" x1="50%" x2="50%" y1="0%" y2="127.57%"><stop offset="0%" stop-color="#673373"></stop><stop offset="100%" stop-color="#1E7135"></stop></linearGradient><path id="h" d="M25 15h6v4h-6z"></path><linearGradient id="j" x1="100%" x2="0%" y1="37.234%" y2="37.234%"><stop offset="0%" stop-color="#949599"></stop><stop offset="3.582%" stop-color="#9E9FA3"></stop><stop offset="5.166%" stop-color="#B9BABC"></stop><stop offset="8.56%" stop-color="#E0E1E3"></stop><stop offset="91.829%" stop-color="#D8D9DB"></stop><stop offset="94.545%" stop-color="#C2C3C5"></stop><stop offset="100%" stop-color="#8D8E90"></stop></linearGradient><path id="k" d="M192.882 244.825s.051 3.609 3.637 5.333h55.76s3.067-1.122 3.75-5.333h-62.243"></path><filter id="l" width="101.6%" height="118.8%" x="-.8%" y="-9.4%"><feGaussianBlur in="SourceAlpha" result="shadowBlurInner1" stdDeviation=".5"></feGaussianBlur><feOffset in="shadowBlurInner1" result="shadowOffsetInner1"></feOffset><feComposite in="shadowOffsetInner1" in2="SourceAlpha" k2="-1" k3="1" operator="arithmetic" result="shadowInnerInner1"></feComposite><feColorMatrix in="shadowInnerInner1" values="0 0 0 0 0 0 0 0 0 0 0 0 0 0 0 0 0 0 0.301441866 0"></feColorMatrix></filter><linearGradient id="m" x1="5.868%" x2="98.275%" y1="97.224%" y2="14.852%"><stop offset="0%" stop-color="#793D8F"></stop><stop offset="100%" stop-color="#E9515B"></stop></linearGradient><path id="n" d="M.057.021H21.08v4.924H.057z"></path><path id="p" d="M0 .971h14.363v17.373H0z"></path></defs><g fill="none" fill-rule="evenodd"><path fill="#222731" fill-rule="nonzero" d="M72.929 0C60.224 0 49.924 10.302 49.924 22.997v221.745h366.644V22.997C416.568 10.297 406.27 0 393.563 0H72.93z"></path><g transform="translate(61 15.45)"><mask id="b" fill="#fff"><use xlink:href="#a"></use></mask><use fill="#F5F5F5" xlink:href="#a"></use><g mask="url(#b)"><g transform="translate(1 42)"><mask id="d" fill="#fff"><use xlink:href="#c"></use></mask><use fill="#F0D9D9" xlink:href="#c"></use><g mask="url(#d)"><g transform="translate(175 -4.45)"><path fill="#FE8D23" fill-rule="nonzero" stroke="#F5F5F5" stroke-width=".5" d="M110.166 25l-.815-.101-2.343-3.906-3.906-2.345-.1-.814 1.181-1.181a1.74 1.74 0 0 1 1.464-.489l2.756.394 4.225-4.974-9.53-5.795-.098-.814 1.153-1.152a1.72 1.72 0 0 1 1.557-.47l12.713 2.542 5.133-5.133a2.606 2.606 0 0 1 3.682 0 2.605 2.605 0 0 1 0 3.681l-5.126 5.127 2.535 12.721a1.715 1.715 0 0 1-.471 1.556L123.025 25l-.812-.098-5.797-9.528-4.972 4.224.393 2.757a1.736 1.736 0 0 1-.487 1.463L110.166 25z" opacity=".18"></path><path fill="#FE8D23" fill-rule="nonzero" stroke="#F5F5F5" stroke-width=".5" d="M116.13 14.286l.79.128L122.75 24l.69-.692a.686.686 0 0 0 .19-.62L121.006 9.49l.152-.416 5.38-5.38a1.582 1.582 0 0 0 0-2.232 1.582 1.582 0 0 0-2.234 0l-5.38 5.38-.442.149-.12-.013-13.05-2.61a.692.692 0 0 0-.622.189l-.691.69 9.586 5.833.128.79-4.859 5.719-.476.18-3.073-.438a.673.673 0 0 0-.586.196l-.718.717 3.484 2.09.18.181 2.09 3.484.717-.718a.698.698 0 0 0 .196-.587l-.439-3.075.18-.474 5.72-4.859z" opacity=".18"></path><path stroke="#D2D2D2" stroke-dasharray="2" stroke-width=".5" d="M60 78c33.137 0 60-11.417 60-25.5S93.137 27 60 27 0 38.417 0 52.5 26.863 78 60 78z"></path><path fill="#F1E8F1" d="M46.282 85.227c5.629.718 11.306.825 16.97 1.04 2.596.1 5.142-.02 7.54.905 2.244.865 4.037 2.602 6.353 3.346 1.797.578 3.736.558 5.614.346 7.94-.897 15.417-5.284 20.032-11.756 4.228-5.927 5.993-13.512 4.886-20.684-.672-4.349-2.69-8.405-3.173-12.788-.512-4.633 1.272-8.672 2.4-13.078a33.294 33.294 0 0 0 1.016-9.424c-.065-1.825-.296-3.696-1.166-5.305-2.365-4.37-8.327-5.195-13.302-4.703-6.16.61-12.305 2.495-17.724 5.463-4.278 2.344-8.516 5.755-13.426 6.68-5.537 1.043-9.82-2.721-14.803-4.438-11.211-3.863-24.748 3.725-29.69 13.817-6.102 12.458-5.408 32.839 6.013 42.084 6.224 5.039 14.244 7.42 22.208 8.462l.252.033"></path><path fill="#FFF" d="M91.21 69c.024-.01.167.13.379.404.213.273.477.688.723 1.223.505 1.067.82 2.642.634 4.36-.187 1.718-.726 3.225-1.143 4.299-.425 1.073-.74 1.725-.793 1.714-.06-.012.152-.687.501-1.77.341-1.085.827-2.584 1.009-4.267.183-1.681-.077-3.212-.496-4.27-.407-1.064-.88-1.667-.813-1.693M93.003 61c.023-.008.17.222.415.648.245.425.588 1.045.995 1.818.807 1.547 1.894 3.712 2.681 6.226.388 1.258.652 2.48.785 3.603.135 1.122.149 2.142.082 2.993-.066.852-.191 1.535-.312 2-.119.465-.213.716-.235.712-.066-.011.229-1.036.291-2.722.078-1.683-.18-4.02-.96-6.506-.78-2.486-1.82-4.653-2.566-6.219l-.89-1.856c-.205-.44-.309-.688-.286-.697M51.997 71.002c.04.039-.352.378-.861 1.008a6.634 6.634 0 0 0-.392.529c-.14.19-.263.408-.399.634-.253.46-.493.982-.678 1.551a8.746 8.746 0 0 0-.336 1.64c-.017.257-.041.5-.034.73-.007.229.007.442.021.637.062.778.196 1.255.139 1.269-.035.01-.254-.45-.382-1.247a5.05 5.05 0 0 1-.065-.654c-.02-.237-.006-.49.003-.756a7.72 7.72 0 0 1 .322-1.706c.192-.59.45-1.13.729-1.6.148-.23.284-.45.44-.641.143-.198.297-.37.44-.523.574-.613 1.03-.897 1.053-.871M52.997 74.007c.032.042-.206.198-.517.494a4.137 4.137 0 0 0-.487.557c-.156.223-.306.48-.424.763-.112.284-.18.565-.219.824a3.4 3.4 0 0 0-.02.693c.03.397.106.644.05.661-.04.015-.21-.211-.314-.63a2.544 2.544 0 0 1-.062-.75c.022-.282.086-.592.209-.903a3.199 3.199 0 0 1 1.08-1.378c.385-.275.683-.364.704-.331M41.003 47.001c.02-.015.19.133.48.416.149.14.323.315.508.532.187.215.412.454.623.741l.342.445c.117.155.224.326.342.498.243.341.461.727.698 1.13.447.816.875 1.742 1.215 2.746.33 1.007.54 1.991.664 2.892.048.451.102.88.107 1.284.006.201.02.396.018.583l-.015.538c0 .343-.043.651-.068.922a5.78 5.78 0 0 1-.1.691c-.07.378-.122.584-.148.581-.067-.008.059-.845.048-2.197l-.01-.53c-.005-.184-.027-.376-.039-.573-.019-.397-.083-.818-.14-1.261a18.674 18.674 0 0 0-.68-2.834 19.322 19.322 0 0 0-1.166-2.708c-.225-.399-.429-.783-.656-1.125-.111-.172-.21-.343-.32-.5l-.316-.45c-.82-1.14-1.439-1.782-1.387-1.82M44.004 49.001c.03-.023.449.31.98.952.267.32.55.722.823 1.186.267.468.52.999.724 1.575.196.576.322 1.14.396 1.656.066.517.086.985.065 1.377-.037.785-.175 1.258-.216 1.253-.058-.006-.012-.485-.041-1.253-.012-.384-.058-.839-.14-1.34-.091-.5-.222-1.045-.413-1.606a11.697 11.697 0 0 0-.677-1.539c-.25-.459-.502-.862-.737-1.19-.465-.658-.81-1.039-.764-1.07"></path><path fill="#7E3E8F" d="M21.331 28s-.517.329-.258.878c.258.548 1.393 2.176 2.926 2.12.062-.001-1.931-2.998-1.931-2.998h-.737z"></path><path fill="#4C041F" d="M19 59.248s-1.811-1.482-2.39-1.216c-.71.324-4.764 3.962-4.605 5.676.065.702.957.1 2.547-1.41 1.59-1.51 3.593-.863 3.593-.863L19 59.248zM24 61.263L21.833 60s-5.618 5.116-4.74 5.798c.666.517 1.057.053 2.633-1.535 1.576-1.588 3.573-.675 3.573-.675L24 61.263z"></path><path fill="#F3A683" d="M37.595 44L38 50l-9-2.443z"></path><path fill="#770D35" d="M29.213 47s8.239.512 9.336.15c0 0 1.61 15.582-1.255 17.262-2.865 1.682-9.294-.78-9.294-.78l1.736-3.362 3.743-.24v-6.005l-.269.06L29.213 47z"></path><path fill="#953157" d="M18.52 58.686s-2.052.845-1.388 2.898c0 0 7.008 5.494 10.418 4.226 1.91-.71 3.962-6.13 5.398-10.759l5.052-6.9s-2.383.12-3.178.117c-1.519-.006-6.07-.268-6.07-.268s-2.378 12.437-3.225 12.739c-.847.301-7.006-2.053-7.006-2.053"></path><path fill="#FE8D23" d="M31 32.251s5.074-4.627 5.951-5.845c.877-1.218 2.757-5.298 5.074-7.002-.262-.829-.262-1.397 0-1.706 0 0 .788-.865 1.253-.67.466.197.308.019.617.156.308.137.21.236.572.374.362.137.362.137.503.323.14.186-.188 1.4-1.378 2.01 0 0-2.357 6.188-4.487 8.197L32.263 35 31 32.251zM25.353 35s-4.562 4.84-5.759 5.673c-1.196.832-5.195 2.604-6.88 4.818l-2.249-1.106s-.362.66.585 1.09c0 0-3.105 1.538-3.05 1.9.057.363 2.385-.7 2.385-.7s-2.154 1.487-2.098 1.91c.055.422 2.415-1.063 2.415-1.063s-1.945 1.67-1.71 1.913c.235.243 1.705-1.31 1.705-1.31s-.971 1.678-.658 1.862c.314.184 1.163-1.677 1.163-1.677s1.369-.167 1.974-1.307c0 0 5.722-2.31 7.703-4.34L28 37.544 25.353 35z"></path><path fill="#D683A3" d="M27.325 33.509L25 35.723l.59 2.497s2.29 5.35 2.637 6.656c.538 2.03-.333 5.124-.333 5.124s3.883-.314 7.417-.43C38.844 49.453 40 48.346 40 48.346s-3.064-9.928-5.178-12.703C32.706 32.87 31.937 32 31.937 32l-3.115.662-1.497.847z"></path><path fill="#D683A3" d="M33.56 35l2.425-1.8s.37-1.927-2.555-4.2L30 31.495 33.56 35zM25.014 35.045c-1.325.173-3.744 3.293-4.014 3.287 0 0 1.703 2.584 3.052 2.668 0 0 5.936-6.604.962-5.955"></path><path fill="#FE8D23" d="M29 32.77s-1.828-1.483-1.764-2.075c.016-.149.269-.39.335-.605.354-1.156-1.354-4.132-2.404-4.76-.826-.493-.464-.536-2.202.586-1.738 1.122-.748 3.063.028 4.066.734.949 1.574 1.355 2.33 1.424L26.398 34 29 32.77z"></path><path fill="#FE8D23" d="M26.107 34.05c-.4-.992.356-2.241 1.687-2.792 1.332-.55 2.734-.192 3.133.8.4.99-.94 2.481-1.688 2.79-.748.31-2.734.193-3.132-.798M22.872 29.001s-.782-.049-.868.539c-.087.586 1.432.586 1.996.146l-1.128-.685z"></path><path fill="#7E3E8F" d="M22.981 30c-.138-.747-1.073-1.302-1.026-2.03a.598.598 0 0 0 .532-.873c-.08-.159-.217-.295-.303-.451-.087-.157-.11-.361.023-.45.063-.041.148-.049.23-.056.664-.058 1.802.112 2.414-.08.582-.185 1.205-.542 1.145-1.149-.053-.528-.601-.957-1.105-1.28-.289-.187-1.113-.672-1.424-.628-.475.067-.59.606-.625 1.058-.332-.27-.822-.226-1.11-.007-.29.219-.426.567-.552.903-.126.336-.26.685-.544.908-.266.209-.686.366-.631.72.065.422.713.572 1.012.931-.074-.088-.136.475-.094.571.128.288.447.478.677.698.491.47.731.941 1.381 1.215"></path><path fill="#CB6F18" d="M26 30.463s1.297.008 2-.463c0 0-.595.794-1.786 1L26 30.463z"></path><path fill="#7E3E8F" d="M103.999 28.003c.023.025-.351.486-1.127.988A6.392 6.392 0 0 1 99.513 30a6.379 6.379 0 0 1-3.372-.955c-.782-.49-1.162-.944-1.14-.969.032-.045.458.339 1.24.759.777.422 1.946.84 3.27.83 1.324-.011 2.487-.449 3.258-.883.777-.432 1.197-.823 1.23-.779M95 28.99c-.022.064-.445-.174-1.157-.389a9.46 9.46 0 0 0-1.265-.281 30.941 30.941 0 0 0-1.576-.184c-.562-.053-1.1-.114-1.59-.196a7.927 7.927 0 0 1-1.289-.325c-.726-.256-1.137-.56-1.123-.603.019-.064.452.136 1.17.31.36.094.793.165 1.275.23.483.06 1.017.109 1.58.162.563.055 1.102.125 1.59.22.488.103.926.224 1.284.378.72.297 1.116.637 1.1.677"></path><path fill="#7E3E8F" d="M86.51 14.308c2-.415 4.07-.058 6.086.27s4.11.624 6.08.096c3.558-.955 6.259-4.467 9.949-4.44 1.518.013 2.95.646 4.431.982 1.838.417 3.753.372 5.615.67 1.862.296 3.786 1.028 4.838 2.559 1.248 1.816.906 4.378-.404 6.152-1.31 1.775-3.408 2.855-5.558 3.467-1.499.427-3.097.674-4.394 1.524-1.313.86-2.17 2.243-3.393 3.22-3.068 2.452-7.844 1.75-11.013-.576-.797-.585-1.535-1.263-2.43-1.69-3.639-1.742-8.873.563-12.007-2.604-3.183-3.217-2.73-8.609 2.2-9.63"></path><path fill="#ED7E15" d="M85 63.26s2.516 5.658 2.81 4.61c.294-1.048.197-3.564.04-3.924C87.69 63.587 86.663 62 86.663 62L85 63.26z"></path><path fill="#FE8D23" d="M102.48 22.57c.21.314.07-.023.308.43.991-.04 1.657-1.017 1.657-1.017s1.573.049 1.555-.278c-.018-.328-1.508-.206-1.508-.206s1.576-.576 1.49-.864c-.086-.288-1.907.63-1.907.63s1.837-1.327 1.566-1.54c-.272-.213-2.038.946-2.038.946s1.535-1.469 1.305-1.658c-.23-.19-2.36 1.722-2.36 1.722.032-.94-.548-.907-.548-.907l.024 2.296s.359.301.456.446M78.646 13.922c-.412.062-.092-.055-.627.078-.879-.684-.762-1.758-.762-1.758s-1.474-1.012-1.23-1.21c.246-.198 1.525.869 1.525.869s-1.04-1.415-.76-1.542c.279-.128 1.305 1.667 1.305 1.667s-.755-2.069-.358-2.025c.396.043 1.206 1.958 1.206 1.958s-.381-1.96-.039-1.93c.343.031.959 2.67.959 2.67.628-.624 1.135-.218 1.135-.218l-1.592 1.428s-.572-.016-.762.013"></path><path fill="#ED7E15" d="M83.207 39S76.974 50.846 77 54.133C77.026 57.42 85.56 64 85.56 64L87 62.725s-2.635-4.71-4.044-6.37c-1.408-1.66 2.351-16.491 2.351-16.491l-2.1-.864z"></path><path fill="#FE8D23" d="M95.528 54s5.416-2.681 4.327-2.918c-1.087-.235-3.633.09-3.983.296-.351.206-1.872 1.485-1.872 1.485L95.528 54z"></path><path fill="#FE8D23" d="M87.491 40l-3.22 1.13s-3.22 13.676-1.991 15.823c1.23 2.148 4.682.726 9.6-1.865l4.12-2.17-1.375-.884s-4.794.907-6.14 1.811c0 0 .703-1.922 1.64-4.634.936-2.713 1.582-5.481-2.634-9.211M84 28.276s-2.727-3.139-3.273-6.213C80.181 18.989 79.255 14 79.255 14l-1.037.317s-.49 6.818 0 7.862c.491 1.044 2.89 7.995 3.62 9.821L84 28.276zM87 29.796s.235-.96 4.104-2.264C94.973 26.228 102.272 22 102.272 22l.728.776s-3.966 4.27-6.273 5.018c-2.307.749-7.208 3.701-7.712 3.937-.762.358-.753.808-2.015-1.935"></path><path fill="#770D35" d="M84.788 28S82 28.968 82 33.513c0 0 .002 6.224.659 7.357 0 0 1.068.293 2.4 0 1.397-.308 2.748-1.412 2.748-1.412L90 32.405l-.262-3.305-2.982-.617s.855 4.283-2.24 2.442c-.601-.358.885-2.788.885-2.788L84.788 28z"></path><path fill="#770D35" d="M81.58 32L80 28.71s.227-1.995 3.127-2.71c0 0 .294 1.006.615 1.39.322.384 1.258.793 1.258.793L81.58 32zM86.86 33l4.96-1.031s.862-1.813-1.183-3.969c0 0-3.868.237-4.37.28-.492.04-.154.426-.154.426L86.86 33zM82.337 39.992s-4.58 8.2-5.337 9.665c0 0 13.514 6.011 19-1.224 0 0-3.12-6.395-7.945-8.83L85.974 39l-3.555.952"></path><path fill="#7E3E8F" d="M98 17.694c.005.02-.189.117-.56.22a6.69 6.69 0 0 1-1.597.212c-.68.016-1.488-.054-2.373-.193-.886-.137-1.848-.337-2.86-.465-1.011-.126-1.983-.149-2.844.013a5.827 5.827 0 0 0-2.175.868c-.57.386-.966.813-1.21 1.137-.244.324-.354.53-.38.513-.013-.008.06-.241.282-.604.22-.362.61-.84 1.19-1.272.579-.429 1.349-.798 2.244-.982.896-.187 1.898-.173 2.927-.045 1.029.13 1.992.342 2.868.496.875.156 1.666.252 2.332.27 1.336.043 2.144-.232 2.156-.168"></path><path fill="#4C041F" d="M86 64.623s.779 2.576 1.582 2.365c.804-.211.2-3.806.2-3.806L86.98 62s.753 6.018-.98 2.623M95 51.197s.591-.787 1.307-.918c.717-.131 3.278-.503 3.654-.088.376.416-2.076 1.809-2.076 1.809s.855-.665.5-.912c-.627-.438-3.385.11-3.385.11M95 52.237L95.647 54l.353-.263L95.137 52z"></path><path fill="#4C041F" d="M86.761 62L85 63.57l.522.43L87 62.408z"></path><path fill="#7E3E8F" d="M49.965 46.121c-.502-1.209-.695-2.555-1.445-3.637-1.08-1.557-3.152-2.33-4.027-4.002-.372-.71-.49-1.523-.493-2.32-.007-1.576.48-3.252 1.735-4.254 1.443-1.15 3.608-1.135 5.298-.361 1.69.773 2.98 2.176 4.078 3.642 1.097 1.467 2.058 3.04 3.337 4.36.947.98 2.071 1.825 2.785 2.976 1.957 3.155-.056 7.147-3.511 8.285-3.036 1-6.706-2.16-7.757-4.689"></path><path fill="#FE8D23" d="M67.443 36.902c.398.078.09-.069.606.098.85-.854.737-2.197.737-2.197s1.424-1.265 1.188-1.512c-.238-.248-1.473 1.085-1.473 1.085s1.005-1.769.735-1.928c-.27-.159-1.262 2.085-1.262 2.085s.73-2.586.346-2.532c-.383.054-1.165 2.447-1.165 2.447s.368-2.45.037-2.41c-.331.038-.866 3.247-.866 3.247-.78-.703-1.326-.253-1.326-.253l1.707 1.854s.553-.019.736.016M57.33 46.005c.742-.094 3.004 1.1 2.428 3.526-.048.203-.374.652-.455.837-.103.235.697 1.094.697 1.094L57.935 52c-.089-.508.06-1.251-.608-1.472-.25-.083-.517-.135-.752-.24-.636-.283-.976-.902-1.237-1.409-.195-.379-.343-.786-.338-1.197.014-1.035 1.138-1.525 2.33-1.677"></path><path fill="#FE8D23" d="M62 52.521c0-1.1-.334-1.521-1.438-1.521-1.104 0-2.562.42-2.562 1.521S58.78 55 59.885 55C60.989 55 62 53.622 62 52.521"></path><path fill="#FE8D23" d="M61 50.798s3.182-3.254 3.818-6.44C65.455 41.17 66.536 36 66.536 36l1.21.33s.572 7.066 0 8.148C67.172 45.56 63.926 53.076 63.99 55L61 50.798zM55.527 53s-1.087.188-2.75 4.079C51.116 60.969 46 68.21 46 68.21l.831.789s4.988-3.827 5.947-6.149c.958-2.321 2.173-5.208 2.75-5.082.574.125 3.004-3.326 0-4.769"></path><path fill="#FFF" d="M63.46 56L65 52.335s-.237-1.719-3.278-2.335L60 52.14 63.46 56z"></path><path fill="#FE8D23" d="M60 90.26s-2.516 5.658-2.81 4.61c-.294-1.047-.197-3.564-.04-3.923.159-.36 1.187-1.947 1.187-1.947L60 90.26z"></path><path fill="#B94772" d="M60.862 64.933l2.31-.933S70.028 76.794 70 80.344C69.97 83.894 60.584 91 60.584 91L59 89.623s4.45-6.91 6-8.703c.774-.897-4.773-5.292-5.613-9.52-.84-4.229 1.475-6.467 1.475-6.467"></path><path fill="#FE8D23" d="M47 87.975s-5.21 3.933-4.993 2.83c.217-1.105 1.529-3.36 1.858-3.611.329-.25 2.108-1.194 2.108-1.194L47 87.975z"></path><path fill="#D683A3" d="M60.983 66s.282 14.018-1.424 17.049C57.853 86.079 45.812 88 45.812 88L45 86.115s7.429-4.336 9.71-5.185c2.28-.85-.834-10.895-.834-10.895L60.983 66z"></path><path fill="#D683A3" d="M58.96 63s-4.753 1.857-3.845 6.951C56.024 75.045 57.538 76 57.538 76l2.725-4.935L63 64.603l-2.737-.383L58.96 63z"></path><path fill="#770D35" d="M61.084 52S65 54.166 65 59.06c0 0-.498 5.58-1.304 6.8 0 0-1.31.315-2.945 0-1.713-.331-3.372-1.52-3.372-1.52l-1.338-6.832L55 53.52l.564-.184 2.946-.32s-.423 4.343 2.866 2.186c.692-.454-.863-2.718-.863-2.718l.57-.484z"></path><path fill="#7E3E8F" d="M46.002 39c.015-.013.192.147.473.473.279.326.66.821 1.042 1.49a10.78 10.78 0 0 1 1.035 2.493c.281.973.47 2.068.901 3.122.224.521.496 1.006.819 1.435.326.426.687.8 1.06 1.125a7.568 7.568 0 0 0 2.267 1.324 7.37 7.37 0 0 0 1.74.412c.422.046.66.053.661.08.001.017-.237.053-.67.045-.433-.003-1.064-.086-1.806-.322-.744-.232-1.583-.663-2.386-1.311a7.794 7.794 0 0 1-1.121-1.163 7.033 7.033 0 0 1-.866-1.502c-.45-1.102-.627-2.207-.888-3.167a11.517 11.517 0 0 0-.948-2.462 12.795 12.795 0 0 0-.94-1.523c-.247-.345-.392-.532-.373-.548M56.017 33c.06-.009.119.76.57 1.897.225.566.56 1.218 1.042 1.871.24.327.517.65.83.97.312.323.65.65.971 1.018.643.741 1.085 1.543 1.501 2.25.413.714.742 1.394.91 2.002.174.606.184 1.127.13 1.473-.059.348-.15.524-.164.519-.03-.007.018-.193.034-.53a3.918 3.918 0 0 0-.225-1.399c-.19-.575-.529-1.223-.952-1.922-.43-.7-.876-1.484-1.49-2.19-.308-.355-.642-.681-.955-1.012a8.87 8.87 0 0 1-.842-1.014 7.826 7.826 0 0 1-1.011-1.96 6.805 6.805 0 0 1-.338-1.434c-.041-.345-.03-.537-.011-.539"></path><path fill="#CB6F18" d="M59 50.807s-.276.313-.728.386c0 0-.1-.218-.272-.327 0 0 .44.104 1-.06z"></path><path fill="#FE8D23" d="M56.693 49.27s-.45-.569-.667-.055C55.81 49.73 57 50 57 50l-.307-.73z"></path><path fill="#4C041F" d="M45 86s-.825.305-1.04.488c-.216.183-2.19 3.079-1.938 3.445.251.365 2.23-.876 2.23-.876S42.596 89.323 45 86M57.845 90s-.632.583-.73.85c-.097.267-.271 3.886.184 4.13.456.243 1.701-1.754 1.701-1.754s-1.489.995-1.155-3.218"></path><path fill="#FFF" d="M56.348 52S54.5 52.161 53 55.566c0 0 1.648 2.355 2.854 2.434 0 0 4.48-3.96.494-6"></path><path stroke="#D683A3" stroke-linecap="square" stroke-width=".6" d="M47.74 22.94L32.05 10.13"></path><path fill="#7E3E8F" d="M33 10.524c-.006-1.04.671-1.83 2.033-2.371C37.076 7.34 38.802 8.153 42 7c-1.95 2.973-.647 4.102-5.934 6"></path><path fill="#D683A3" d="M27.385 69.468l2.692-3.07a.48.48 0 0 1 .674-.047l1.432 1.234a.48.48 0 0 1 .047.68l-2.691 3.07a.48.48 0 0 1-.675.047l-1.431-1.234a.48.48 0 0 1-.048-.68z"></path><path fill="#373168" d="M28.51 68.026l.156-.178 2.158 1.861-.156.178z"></path><path stroke="#373168" stroke-linecap="square" stroke-width=".5" d="M30.746 69.798l8.537-.131"></path><path stroke="#373168" stroke-linecap="square" stroke-width=".72" d="M39.283 69.667l8.744-.369"></path><path fill="#FE8D23" d="M45.772 68.038c-.86.029-1.395.21-1.602.547 0 0-.565.99-.235 1.349.33.358.113.273.34.508.225.235.287.113.53.397.243.284.243.284.462.352.219.067 1.256-.62 1.454-1.892 0 0-.248-1.461-.95-1.26z"></path><path stroke="#7E3E8F" stroke-width=".5" d="M85.023 28.037c-1.684-.228-2.859.6-3.524 2.486-.665 1.885-.665 3.57 0 5.053L84.854 38l1.916-2.895c2.567-4.137 2.918-6.372 1.052-6.705-.678-.097-1.218-.097-1.619 0l-1.18-.363z"></path><path fill="#41366B" d="M80 36h6v3h-6z"></path><g transform="translate(80.571 36.5)"><path fill="#1E1639" d="M1.143 0H2.57v.032c.493.11.858.502.858.968 0 .466-.365.857-.858.968V2H1.143C.512 2 0 1.552 0 1s.512-1 1.143-1z"></path><ellipse cx="1.143" cy="1" fill="#F1E8F1" rx="1" ry="1"></ellipse></g><path fill="#998CC8" d="M80 35.13l.687-.26H86l-.283.26z"></path><path fill="#41366B" d="M82 35h1v1h-1z"></path><path fill="#1E1639" d="M85.863 39l.274-.22V35l-.274.308z"></path><path fill="#998CC8" d="M82 35.094l.241-.188H83l-.141.188H82z"></path><path fill="#1E1639" d="M82.913 36l.174-.368V35l-.174.265z"></path><path fill="#FE8D23" d="M86.676 22.005c-.496-.066-1.695.578-2.294 1.628-.336.587-.567 1.184-.181 2.14.18.449.56.505.645.707.108.255-.248 1.058-.248 1.058l1.415.462c.092-.552.197-1.107.892-1.347.26-.09.539-.147.784-.26.663-.308 1.017-.98 1.29-1.53.203-.41-1.061-2.694-2.303-2.858M83 29.734c0-1.006.348-1.734 1.428-1.734S87 28.353 87 29.36c0 1.006-.85 2.64-1.931 2.64C83.989 32 83 30.74 83 29.734"></path><path fill="#FE8D23" d="M88.265 25.285s.432-.516.697-.159C89.228 25.484 88 26 88 26l.265-.715z"></path><path fill="#CB6F18" d="M85 27s.49.879 1 .596c0 0-.176.566-.854.358 0 0 .057-.624-.146-.954"></path><ellipse cx="59.5" cy="103" fill="#F1E8F1" rx="48.5" ry="3"></ellipse><path fill="url(#e)" d="M2.305 1.97s2.56 3.86.4 5.91C.545 9.93.291 7.64.291 7.64s-1.156.076 1.142-2.536c1.082-1.23.872-3.134.872-3.134" transform="rotate(-30 214.467 -118.892)"></path><path fill="url(#f)" d="M9.16 0s1.827 3.505-2.472 6.79C2.39 10.075 2.411 12.34 2.411 12.34S-.615 4.214 9.16 0" transform="rotate(-30 214.467 -118.892)"></path><path fill="url(#g)" d="M5.28 5.84c2.66-.836 4.785-.489 6.403-1.511 0 0-1.779 6.738-9.823 6.515-1.634-.045.76-4.167 3.42-5.004z" transform="rotate(-30 214.467 -118.892)"></path><path fill="#770D35" d="M91 98h8v2h-8z"></path><path fill="#770D35" d="M92 98h6l-1 5h-4z"></path><mask id="i" fill="#fff"><use xlink:href="#h"></use></mask><path fill="#FE8D23" d="M26.873 15C25.839 15 25 15.895 25 16.999s.838 2 1.872 2l2.254.001h.001C30.161 19 31 18.105 31 17.001s-.838-2-1.872-2L26.874 15h-.001z" mask="url(#i)"></path><path fill="#FE8D23" d="M26.72 15l2.561.001c.949 0 1.72.673 1.719 1.5 0 .827-.772 1.499-1.72 1.499l-2.562-.001c-.947 0-1.718-.673-1.718-1.5 0-.826.772-1.499 1.72-1.499zM-13.139 5h-2.722C-17.042 5-18 6.119-18 7.5c0 1.38.958 2.5 2.139 2.5h2.722C-11.958 10-11 8.88-11 7.5c0-1.381-.958-2.5-2.139-2.5" mask="url(#i)"></path><path fill="#FE8D23" d="M-13.691 6C-12.76 6-12 6.897-12 8s-.759 2-1.691 2h-2.618C-17.24 10-18 9.103-18 8s.759-2 1.691-2h2.618M7.897 6H-5.637c-1.263 0-2.35.937-2.369 2.134-.02 1.214 1.012 2.204 2.287 2.204l.577.003c.172 0 .346.017.51.065 1.027.3 1.555 1.296 1.254 2.22-.241.742-.995 1.225-1.813 1.226l-2.547.006c-1.206 0-2.243.895-2.262 2.038-.02 1.159.966 2.104 2.183 2.104h23.145c1.54 0 2.446-1.276 2.233-2.447a1.064 1.064 0 0 1 1.065-1.253h.061c1.29 0 2.333-1.002 2.313-2.23-.02-1.21-1.119-2.157-2.395-2.157h-.674c-2.603 0-4.563-.002-5.948-.004-1.286-.002-2.392-.907-2.532-2.12C9.345 6.87 8.963 6 7.897 6" mask="url(#i)"></path><path fill="#FE8D23" d="M8.38 6c.245 0 .992 0 1.16 1.556a2.914 2.914 0 0 0 2.894 2.608c1.376.002 3.32.004 5.905.004h.668c1.083 0 1.976.859 1.993 1.913a1.951 1.951 0 0 1-.549 1.396c-.362.374-.845.58-1.363.58l-.061.001a1.438 1.438 0 0 0-1.106.527c-.286.348-.406.81-.329 1.267a1.884 1.884 0 0 1-.405 1.495c-.349.421-.857.653-1.432.653H-7.217c-.482 0-.933-.193-1.27-.542A1.818 1.818 0 0 1-9 16.156c.016-.984.85-1.785 1.862-1.785l1.691-.004.837-.002c.993-.002 1.884-.653 2.166-1.581.177-.584.121-1.2-.158-1.737a2.259 2.259 0 0 0-1.34-1.12 2.09 2.09 0 0 0-.62-.086l-.573-.003c-.51 0-.987-.203-1.344-.573a1.922 1.922 0 0 1-.541-1.377C-7.004 6.848-6.122 6-5.054 6H8.38" mask="url(#i)"></path></g></g></g><g stroke="#BC9FAE" stroke-linecap="round"><path stroke-width="7" d="M44.713 61.604h110.12"></path><path stroke-width="5" d="M44.713 74.604h55.06M44.713 87.604h55.06"></path></g></g><g mask="url(#b)"><rect width="69.826" height="74.258" fill="#F1E8F1" rx="3.528" transform="translate(103.136 134.159)"></rect><path fill="#7E3E8F" fill-rule="nonzero" d="M138.651 147.347h.254v-1.017h-.712v-1.867h-.288v1.867h-.711v1.017h.253c0 6.932-3.143 11.306-3.143 11.306h1.554c.09-.956 1.035-1.708 2.191-1.708s2.102.752 2.191 1.708h1.554s-3.143-4.873-3.143-11.306zm-1.515 8.09c.122-.595.404-1.98.556-2.803h.714c.152.823.434 2.208.556 2.803h-1.826z"></path><path fill="#4C041F" d="M123.34 181.405h29.419a1.406 1.406 0 0 1 0 2.813h-29.42a1.406 1.406 0 0 1 0-2.813zm0 7.595h29.419a1.406 1.406 0 0 1 0 2.813h-29.42a1.406 1.406 0 1 1 0-2.813zm0 7.594h29.419a1.406 1.406 0 0 1 0 2.813h-29.42a1.406 1.406 0 0 1 0-2.813z" opacity=".318"></path><g transform="translate(24 134.159)"><rect width="69.826" height="74.258" fill="#F1E8F1" rx="3.528"></rect><path fill="#7E3E8F" fill-rule="nonzero" d="M34.944 13.432h.253v-1.016h-.711v-1.868h-.288v1.868h-.712v1.016h.253c0 6.933-3.143 11.306-3.143 11.306h1.554c.09-.956 1.036-1.708 2.192-1.708 1.156 0 2.101.752 2.19 1.708h1.555s-3.143-4.872-3.143-11.306zm-1.516 8.09c.123-.594.405-1.98.557-2.803h.713c.152.824.435 2.209.557 2.803h-1.827z"></path><path fill="#4C041F" d="M20.203 47.247h29.42a1.406 1.406 0 0 1 0 2.812h-29.42a1.406 1.406 0 0 1 0-2.812zm0 7.594h29.42a1.406 1.406 0 0 1 0 2.813h-29.42a1.406 1.406 0 1 1 0-2.813zm0 7.595h29.42a1.406 1.406 0 0 1 0 2.812h-29.42a1.406 1.406 0 0 1 0-2.812z" opacity=".318"></path><path stroke="#BC9FAE" stroke-linecap="round" stroke-width="5" d="M19.653 38.577h30.462"></path></g><g><rect width="69.826" height="74.258" fill="#F1E8F1" rx="3.528" transform="translate(181.67 134.159)"></rect><path fill="#4C041F" d="M201.873 181.405h29.42a1.406 1.406 0 0 1 0 2.813h-29.42a1.406 1.406 0 0 1 0-2.813zm0 7.595h29.42a1.406 1.406 0 0 1 0 2.813h-29.42a1.406 1.406 0 1 1 0-2.813zm0 7.594h29.42a1.406 1.406 0 1 1 0 2.813h-29.42a1.406 1.406 0 0 1 0-2.813z" opacity=".318"></path><path stroke="#BC9FAE" stroke-linecap="round" stroke-width="5" d="M201.13 172.516h30.46"></path><path fill="#7E3E8F" fill-rule="nonzero" d="M222.643 147.737l-.596.204-.668-.204h-9.719l-.668.204-.595-.204-2.819.967h.194v5.221h17.495v-5.221h.194l-2.818-.967zm-13.51 5.028h-.583v-.967h.583v.967zm0-1.934h-.583v-1.354h.583v1.354zm1.555 1.934h-.583v-.967h.583v.967zm0-1.934h-.583v-1.354h.583v1.354zm1.555 1.934h-.583v-.967h.583v.967zm0-1.934h-.583v-1.354h.583v1.354zm1.555 2.32h-.777v-1.353h.777v1.354zm0-2.32h-.777v-.967c0-.213.174-.387.389-.387.214 0 .388.174.388.387v.967zm1.555 2.32h-.777v-1.353h.777v1.354zm0-2.32h-.777v-.967c0-.213.174-.387.389-.387.214 0 .388.174.388.387v.967zm1.555 2.32h-.777v-1.353h.777v1.354zm0-2.32h-.777v-.967c0-.213.174-.387.389-.387.214 0 .388.174.388.387v.967zm1.556 2.32h-.778v-1.353h.778v1.354zm0-2.32h-.778v-.967c0-.213.174-.387.389-.387.214 0 .389.174.389.387v.967zm1.555 2.32h-.778v-1.353h.778v1.354zm0-2.32h-.778v-.967c0-.213.174-.387.389-.387.215 0 .389.174.389.387v.967zm1.36 1.934h-.583v-.967h.583v.967zm0-1.934h-.583v-1.354h.583v1.354zm1.555 1.934h-.583v-.967h.583v.967zm0-1.934h-.583v-1.354h.583v1.354zm1.555 1.934h-.583v-.967h.583v.967zm0-1.934h-.583v-1.354h.583v1.354z"></path></g><g transform="translate(261 133.55)"><rect width="68.711" height="74" fill="#F1E8F1" rx="3.528"></rect><path stroke="#BC9FAE" stroke-linecap="round" stroke-width="5" d="M19.475 38.118h30.184"></path></g><g fill="#4C041F" opacity=".318" transform="translate(278 181.55)"><rect width="33" height="3.176" rx="1.588"></rect><rect width="33" height="3.176" y="7.412" rx="1.588"></rect><rect width="33" height="3.176" y="14.824" rx="1.588"></rect></g><path fill="#7E3E8F" fill-rule="nonzero" d="M301.163 146.55l-.6.197-.672-.198h-9.782l-.672.198-.6-.198-2.837.938h.196v5.062h17.608v-5.062H304l-2.837-.938zm-13.598 4.874h-.587v-.937h.587v.937zm0-1.875h-.587v-1.312h.587v1.312zm1.565 1.875h-.587v-.937h.587v.937zm0-1.875h-.587v-1.312h.587v1.312zm1.566 1.875h-.587v-.937h.587v.937zm0-1.875h-.587v-1.312h.587v1.312zm1.565 2.25h-.783v-1.312h.783v1.312zm0-2.25h-.783v-.937c0-.207.175-.375.392-.375.216 0 .39.168.39.375v.937zm1.565 2.25h-.783v-1.312h.783v1.312zm0-2.25h-.783v-.937c0-.207.176-.375.392-.375.216 0 .391.168.391.375v.937zm1.565 2.25h-.782v-1.312h.782v1.312zm0-2.25h-.782v-.937c0-.207.175-.375.391-.375.216 0 .391.168.391.375v.937zm1.566 2.25h-.783v-1.312h.783v1.312zm0-2.25h-.783v-.937c0-.207.175-.375.391-.375.216 0 .392.168.392.375v.937zm1.565 2.25h-.783v-1.312h.783v1.312zm0-2.25h-.783v-.937c0-.207.175-.375.391-.375.217 0 .392.168.392.375v.937zm1.37 1.875h-.588v-.937h.587v.937zm0-1.875h-.588v-1.312h.587v1.312zm1.565 1.875h-.587v-.937h.587v.937zm0-1.875h-.587v-1.312h.587v1.312zm1.565 1.875h-.587v-.937h.587v.937zm0-1.875h-.587v-1.312h.587v1.312z"></path></g></g><path fill="#5E5E5E" fill-rule="nonzero" d="M9 253.024s4.686 4.715 17.957 5.96h413.03s11.011-.833 18.153-5.755H19.407L9 253.024z"></path><path fill="#F2F2F2" d="M9.25 244.537v8.723h449.064v-8.723z"></path><g transform="translate(9)"><use fill="url(#j)" xlink:href="#k"></use><use fill="#000" filter="url(#l)" xlink:href="#k"></use></g><g><g transform="translate(92 27)"><path fill="url(#m)" fill-rule="nonzero" d="M15.527 0c.255 0 .48.033.674.1.194.067.347.156.458.267.222.222.335.655.34 1.3.006.644-.301 1.277-.923 1.9l-3.511 3.516c.022.49.058 1.128.108 1.917.05.789.097 1.564.141 2.325a2007.955 2007.955 0 0 0 .167 2.858c.01.09.005.211-.017.367-.022.156-.116.333-.283.533-.166.2-.39.453-.674.759l-.424.458a1.042 1.042 0 0 1-.291.208.716.716 0 0 1-.308.075H10.9a.918.918 0 0 1-.258-.1c-.106-.055-.192-.166-.258-.333a55.936 55.936 0 0 1-.25-.667c-.144-.389-.313-.841-.508-1.358-.194-.517-.39-1.053-.59-1.608-.2-.556-.372-1.023-.516-1.4l-2.164 2.1c-.01.3-.014.739-.008 1.316.006.578.003.961-.008 1.15 0 .056-.009.159-.025.309-.017.15-.17.391-.458.725-.1.089-.2.158-.3.208a.634.634 0 0 1-.282.075h-.017a.523.523 0 0 1-.275-.075.622.622 0 0 1-.208-.208 12.952 12.952 0 0 0-.25-.4 122.445 122.445 0 0 1-1.081-1.734 55.122 55.122 0 0 0-.383-.616c-.61-.367-1.22-.745-1.83-1.134-.61-.389-.944-.605-.999-.65a.525.525 0 0 1-.191-.25A.799.799 0 0 1 0 11.7a.75.75 0 0 1 .25-.533l.05-.05c.321-.267.557-.414.707-.442.15-.028.258-.042.324-.042h.117c.2 0 .507.003.924.009.416.005.784.008 1.106.008H3.811l2.097-2.167-1.415-.525a836.86 836.86 0 0 1-1.614-.6c-.521-.194-.979-.366-1.373-.516-.394-.15-.613-.23-.657-.242-.178-.067-.294-.156-.35-.267a.646.646 0 0 1-.083-.266.614.614 0 0 1 .042-.359c.05-.116.124-.225.224-.325l.458-.425c.305-.283.557-.508.757-.675.167-.133.32-.216.458-.25.139-.033.252-.05.341-.05h.083a295.547 295.547 0 0 1 2.887.175c.76.05 1.54.103 2.339.159.799.055 1.442.094 1.93.116l3.512-3.5c.344-.344.699-.586 1.065-.725A2.88 2.88 0 0 1 15.527 0z"></path><g fill="#9B9B9B" opacity=".347" transform="translate(66 9)"><rect width="29" height="4.244" rx="1.537"></rect><rect width="29" height="4.244" x="35" rx="1.537"></rect><rect width="29" height="4.244" x="105" rx="1.537"></rect><rect width="29" height="4.244" x="70" rx="1.537"></rect><rect width="29" height="4.244" x="140" rx="1.537"></rect></g><rect width="46" height="14" x="246.5" y="3.5" fill="#7E3E8F" fill-rule="nonzero" rx="7"></rect></g></g><path stroke="#BC9FAE" stroke-linecap="round" stroke-width="5" d="M184.17 187.573h30.797"></path><g><path fill="#FFF" d="M70.54 157.57l20.418-49.637s56.631 19.028 56.035 20.215a95066.64 95066.64 0 0 0-24.71 50.328L70.54 157.57z"></path><path fill="#453C87" d="M100.841 116.149c.01.006-.047.122-.17.34-.152.254-.334.563-.557.94l-2.064 3.43a253.307 253.307 0 0 0-6.47 11.511 249.253 249.253 0 0 0-5.829 11.849l-1.661 3.642c-.183.394-.336.721-.459.989-.11.224-.173.339-.185.335-.012-.006.028-.133.113-.367l.392-1.014c.344-.884.872-2.147 1.548-3.698a183.999 183.999 0 0 1 12.316-23.39c.896-1.436 1.64-2.586 2.172-3.37.246-.36.449-.658.616-.9.145-.202.226-.305.238-.297"></path><path fill="#453C87" d="M128.105 130.206c-.006.012-.123-.026-.345-.11-.263-.102-.58-.231-.962-.382-.833-.34-2.029-.848-3.503-1.488a444.442 444.442 0 0 1-11.436-5.174 436.135 436.135 0 0 1-11.292-5.487c-1.434-.725-2.59-1.32-3.383-1.744-.362-.194-.662-.359-.908-.493-.207-.117-.312-.185-.304-.195.006-.013.12.03.34.125l.941.428 3.435 1.631c2.953 1.403 6.935 3.294 11.336 5.382 4.418 2.05 8.418 3.902 11.384 5.278 1.415.653 2.581 1.196 3.452 1.599.37.178.677.327.931.448.211.109.32.17.314.182M131.608 125.04c.012.007-.062.167-.211.465l-.672 1.298-2.53 4.74c-2.143 3.997-5.115 9.512-8.246 15.68-3.128 6.175-5.764 11.857-7.56 16.016a286.64 286.64 0 0 0-2.09 4.947l-.565 1.345c-.133.307-.209.468-.222.462-.012-.004.04-.173.149-.49l.498-1.373c.433-1.19 1.107-2.901 1.977-4.996 1.733-4.197 4.334-9.904 7.465-16.087 3.133-6.175 6.147-11.672 8.353-15.635 1.096-1.948 1.993-3.535 2.636-4.68.306-.522.549-.942.737-1.263.173-.29.269-.436.28-.428"></path><path fill="#453C87" d="M130.17 134.076c-.044.1-7.175-3-15.925-6.916-8.752-3.917-15.81-7.171-15.766-7.27.044-.098 7.173 2.998 15.925 6.916 8.752 3.917 15.81 7.171 15.766 7.27M104.688 128.108c-.066.095-1.389-.765-3.157-1.54-1.767-.788-3.293-1.189-3.267-1.302.016-.097 1.616.141 3.424.946 1.812.796 3.061 1.819 3 1.896M103.515 129.107c-.068.097-1.405-.819-3.23-1.574-1.823-.769-3.412-1.076-3.392-1.193.008-.095 1.667.046 3.542.835 1.88.778 3.146 1.858 3.08 1.932M103.076 130.897c-.062.095-1.455-.732-3.243-1.605-1.786-.878-3.292-1.475-3.257-1.58.032-.097 1.616.339 3.43 1.233 1.814.884 3.127 1.868 3.07 1.952M109.682 128.296c-.008-.024.13-.11.41-.194.278-.078.71-.17 1.247-.042.525.117 1.155.573 1.286 1.35.067.388-.088.808-.336 1.115a2.33 2.33 0 0 1-.978.73 2.116 2.116 0 0 1-1.223.114 1.918 1.918 0 0 1-.994-.576c-.516-.541-.598-1.332-.328-1.827.25-.502.664-.748.954-.819.294-.077.461-.022.459-.002 0 .032-.163.032-.41.143a1.488 1.488 0 0 0-.75.79c-.191.42-.098 1.029.335 1.469.416.45 1.15.624 1.814.349.644-.256 1.18-.876 1.101-1.441-.077-.585-.564-1.005-1.005-1.13-.455-.146-.866-.107-1.14-.073-.277.034-.434.072-.442.044M120.519 133.838c-.034.1-1.749-.408-3.77-1.28-2.024-.866-3.57-1.762-3.522-1.855.05-.097 1.665.636 3.676 1.5 2.006.862 3.654 1.53 3.616 1.635M115.806 133.343c-.026.1-.868-.042-1.81-.494-.944-.451-1.58-1.018-1.518-1.101.065-.092.779.317 1.687.75.904.437 1.67.738 1.64.845M103.515 140.898c.008-.004.103.026.278.087l.751.278c.69.26 1.622.616 2.78 1.056l9.614 3.74-.218.076 5.015-8.497c.06-.097.117-.196.174-.293l.104.283-13.296-4.815.182-.062c-3.05 4.616-4.734 7.166-5.384 8.147-.05-.024.415-.866 1.307-2.309.89-1.448 2.2-3.51 3.817-6.008l.066-.103.117.04 13.322 4.744.222.079-.12.202c-.058.095-.116.194-.174.293-1.8 3.024-3.51 5.9-5.046 8.478l-.078.133-.14-.058-9.655-3.943-2.71-1.13c-.282-.125-.515-.222-.703-.305-.157-.071-.233-.11-.225-.113M100.4 143.662c-.007-.024.13-.11.412-.195.276-.077.71-.17 1.246-.041.524.117 1.156.572 1.285 1.35.068.388-.087.808-.335 1.115a2.317 2.317 0 0 1-.978.73 2.11 2.11 0 0 1-1.222.114 1.916 1.916 0 0 1-.995-.577c-.517-.54-.598-1.331-.328-1.827.25-.501.663-.747.954-.818.294-.077.46-.022.459-.002 0 .032-.163.032-.41.143a1.488 1.488 0 0 0-.75.79c-.192.42-.098 1.029.335 1.469.415.45 1.15.624 1.814.348.644-.255 1.18-.875 1.1-1.44-.077-.585-.564-1.005-1.005-1.13-.455-.146-.866-.107-1.14-.073-.276.034-.433.071-.441.044M111.237 149.204c-.033.099-1.748-.408-3.769-1.28-2.024-.866-3.57-1.762-3.522-1.855.05-.097 1.667.638 3.675 1.5 2.007.862 3.654 1.53 3.616 1.635M106.524 148.708c-.025.101-.868-.041-1.81-.493-.941-.452-1.58-1.019-1.516-1.102.064-.091.777.317 1.685.751.906.436 1.671.737 1.641.844M94.234 156.263c.01-.003.103.026.278.088l.75.277c.69.26 1.622.616 2.78 1.056 2.395.932 5.713 2.224 9.615 3.74l-.219.077 5.017-8.497.173-.294.103.284-13.296-4.816.183-.061c-3.05 4.615-4.735 7.166-5.384 8.146-.05-.023.415-.866 1.307-2.308.89-1.449 2.2-3.51 3.817-6.009l.065-.103.117.04 13.322 4.744.223.08-.121.202c-.058.095-.115.194-.173.293-1.8 3.024-3.51 5.9-5.047 8.477l-.077.133-.141-.057-9.654-3.944-2.71-1.13c-.283-.124-.515-.221-.704-.305-.157-.07-.232-.109-.224-.113M135.539 128.731c.095.048-4.288 8.872-9.791 19.702-5.506 10.834-10.046 19.575-10.141 19.527-.098-.05 4.287-8.87 9.793-19.701 5.503-10.832 10.043-19.575 10.139-19.528"></path><path fill="#453C87" d="M138.04 137.026c-.036.1-2.35-.613-5.17-1.594-2.82-.98-5.077-1.857-5.04-1.958.035-.103 2.348.613 5.169 1.592 2.82.98 5.076 1.857 5.04 1.96"></path><path fill="#453C87" d="M133.643 139.667c-.091.044-.942-1.629-1.617-3.834-.684-2.202-.924-4.059-.825-4.077.111-.02.523 1.786 1.198 3.964.668 2.177 1.347 3.904 1.244 3.947M130.798 145.672c-.108-.008-.14-.793-.072-1.758.07-.96.213-1.736.32-1.728.107.008.139.795.07 1.758-.068.961-.211 1.736-.318 1.728"></path><path fill="#453C87" d="M133.32 143.944c-.015.11-.915.075-2.004.206-1.09.12-1.959.36-1.998.254-.04-.092.808-.512 1.953-.64 1.144-.135 2.066.079 2.048.18M92.318 117.354c.058-.097 1.46.656 3.233 1.486 1.77.837 3.245 1.437 3.209 1.54-.034.1-1.584-.343-3.376-1.187-1.792-.84-3.121-1.752-3.066-1.839"></path><path fill="#453C87" d="M98.36 111.235c.093.052-1.143 2.42-2.762 5.283-1.62 2.868-3.006 5.149-3.102 5.093-.093-.051 1.145-2.416 2.762-5.283 1.62-2.866 3.008-5.144 3.101-5.093M93.33 116.54c-.107.01-.248-.571-.316-1.3-.067-.728-.035-1.326.072-1.336.107-.01.248.572.316 1.3.067.727.036 1.325-.072 1.335"></path><path fill="#453C87" d="M95.935 114.98c.02.105-.932.378-2.128.616-1.198.234-2.183.337-2.205.232-.02-.105.934-.38 2.13-.617 1.196-.233 2.181-.338 2.203-.231"></path><path fill="#F7D3A9" d="M127.071 155.43s2.523-8.466 3.066-8.462c1.577.02.538 4.462.538 4.462s5.214-7.536 6.323-6.769c.68.472-1.836 4.946-1.836 4.946s3.373-3.186 4.363-2.61c.965.565-2.85 5.044-2.85 5.044s2.655-1.909 3.525-1.294c.598.422-9.705 9.714-9.705 9.714l-3.424-5.032z"></path><path fill="#FE8D23" d="M127.071 155.43s2.523-8.466 3.066-8.462c1.577.02.538 4.462.538 4.462s5.214-7.536 6.323-6.769c.68.472-1.836 4.946-1.836 4.946s3.373-3.186 4.363-2.61c.965.565-2.85 5.044-2.85 5.044s2.655-1.909 3.525-1.294c.598.422-9.705 9.714-9.705 9.714l-3.424-5.032zM72.861 345.726l.243 5.95-4.326.661-.173-6.563z"></path><g transform="translate(68.388 350.56)"><mask id="o" fill="#fff"><use xlink:href="#n"></use></mask><path fill="#4C041F" d="M.391 1.777s17.8-3.212 20.477-.947C23.542 3.097.058 4.946.058 4.946L.39 1.777z" mask="url(#o)"></path></g><path fill="#FE8D23" d="M10.505 324.81l-4.967 3.3-2.815-3.34 5.53-3.558z"></path><g transform="translate(-.166 323.799)"><mask id="q" fill="#fff"><use xlink:href="#p"></use></mask><path fill="#4C041F" d="M2.888.971s12.005 13.497 11.456 16.953C13.794 21.382 0 2.333 0 2.333L2.89.97z" mask="url(#q)"></path></g><path fill="#770D35" d="M79.898 197.72s14.962 13.772 15.212 64.845c.248 51.074-17.612 84.964-17.612 84.964h-12.59s20.651-64.132-2.552-106.663c0 0-7.764 49.546-48.869 87.447l-9.942-10.537s30.314-37.986 30.554-85.486c.048-9.41 1.63-14.171-1.653-24.704l47.452-9.866z"></path><path fill="#AFBDEB" d="M24.36 148.416l8.748 67.589 55.05.711-8.225-50.917s27.21 25.76 39.076 15.08c11.865-10.678 13.795-21.296 13.795-21.296l-6.466-4.433s-9.83 18.671-18.77 12.8c-10.045-6.6-32.507-33.568-53.693-30.22-14.031 2.22-27.351-5.61-29.515 10.686"></path><path fill="#FE8D23" d="M56.854 108.326l5.072 13.056a5.623 5.623 0 0 1-3.249 7.288l-1.724.658.832 9.57-13.365 1.157-2.349-27.004 14.783-4.725z"></path><path fill="#7E3E8F" d="M49.469 132.973s5.12-4.443 4.685-8.412c0 0-7.55-3.135-5.502-5.323 2.049-2.185 6.416 1.679 6.416 1.679s-3.012-5.769-2.347-7.39c0 0 9.786-.86 7.703-6.474 0 0-2.936-2.227-9.123-2.04-6.187.183-8.677 10.85-8.677 10.85l6.845 17.11z"></path><path fill="#7E3E8F" d="M52.267 105.69c-5.768-1.53-12.243-.096-16.817 3.728-4.574 3.825-7.121 9.934-6.617 15.865.356 4.164 2.08 8.511.45 12.362-.839 1.978-2.46 3.505-4.052 4.952-4.647 4.235-9.455 8.398-13.06 13.547-3.602 5.148-5.932 11.501-4.937 17.7.423 2.633 1.46 5.202 3.191 7.235.91 1.07 2.003 1.987 2.804 3.139 2.859 4.12 1.251 9.874 3.004 14.569 2.249 6.028 9.328 8.72 15.742 9.367 8.8.89 18.287-.969 24.772-6.967 6.487-5.999 8.9-16.686 3.904-23.967-2.471-3.604-6.676-6.77-6.264-11.119.256-2.699 2.3-4.843 3.475-7.288 2.354-4.897.794-11.345-3.539-14.63-1.6-1.213-3.499-2.02-4.979-3.373-1.48-1.356-2.48-3.573-1.594-5.369.684-1.387 2.281-2.132 2.997-3.5 1.069-2.044-.227-4.518-1.737-6.265-1.51-1.746-3.37-3.478-3.588-5.773-.165-1.746.677-3.41 1.494-4.962l4.844-9.187"></path></g></g></svg> 