<svg xmlns="http://www.w3.org/2000/svg" xmlns:xlink="http://www.w3.org/1999/xlink" width="648" height="580">
  <defs>
    <linearGradient id="a" x1="53.6675543%" x2="27.8887173%" y1="80.4116977%" y2="13.3795478%">
      <stop offset="0%" stop-color="#4415B8" stop-opacity="0"/>
      <stop offset="100%" stop-color="#5028BF"/>
    </linearGradient>
    <linearGradient id="b" x1="-8.82852184%" x2="97.7868246%" y1="-10.2587013%" y2="54.3811432%">
      <stop offset="0%" stop-color="#7629A9"/>
      <stop offset="100%" stop-color="#151B4E"/>
    </linearGradient>
    <linearGradient id="c" x1="46.2644607%" x2="63.42642%" y1="6.79782614%" y2="132.846529%">
      <stop offset="0%" stop-color="#FFF"/>
      <stop offset="100%" stop-color="#E5E9FF"/>
    </linearGradient>
    <linearGradient id="d" x1="143.068693%" x2="-42.3059412%" y1="91.9123901%" y2="-37.8388523%">
      <stop offset="0%" stop-color="#5937F4"/>
      <stop offset="100%" stop-color="#80FBFF"/>
    </linearGradient>
    <linearGradient id="e" x1="-20.221265%" x2="82.900908%" y1="50%" y2="71.655892%">
      <stop offset="0%" stop-color="#A2F8E4"/>
      <stop offset="100%" stop-color="#2EA6B4"/>
    </linearGradient>
    <linearGradient id="f" x1="170.970953%" x2="27.8887173%" y1="177.357344%" y2="13.3795478%">
      <stop offset="0%" stop-color="#4415B8" stop-opacity="0"/>
      <stop offset="100%" stop-color="#5028BF"/>
    </linearGradient>
    <linearGradient id="g" x1="-28.979983%" x2="164.360608%" y1="97.5365358%" y2="-55.3702845%">
      <stop offset="0%" stop-color="#CCA0E8"/>
      <stop offset="100%" stop-color="#C5CEEF"/>
    </linearGradient>
    <linearGradient id="h" x1="64.8814388%" x2="-15.8334665%" y1="-3.17473213%" y2="133.761352%">
      <stop offset="0%" stop-color="#F7EDFD"/>
      <stop offset="100%" stop-color="#FFF"/>
    </linearGradient>
    <linearGradient id="i" x1="-61.0939831%" x2="108.203287%" y1="100%" y2="20.7030542%">
      <stop offset="0%" stop-color="#5937F4"/>
      <stop offset="100%" stop-color="#80FBFF"/>
    </linearGradient>
    <linearGradient id="j" x1="127.677797%" x2="-19.5576917%" y1="155.26127%" y2="-14.0368063%">
      <stop offset="0%" stop-color="#FF895B"/>
      <stop offset="100%" stop-color="#FFEC9E"/>
    </linearGradient>
    <linearGradient id="k" x1="93.494602%" x2="30.152871%" y1="88.5089157%" y2="6.91375485%">
      <stop offset="0%" stop-color="#CA7878" stop-opacity="0"/>
      <stop offset="100%" stop-color="#302A79"/>
    </linearGradient>
    <linearGradient id="l" x1="17.1725558%" x2="310.086538%" y1="77.6096835%" y2="-93.5886086%">
      <stop offset="0%" stop-color="#5937F4"/>
      <stop offset="100%" stop-color="#80FBFF"/>
    </linearGradient>
    <path id="m" d="M2.71951035 12.8082504C1.11439435 15.516845.22352222 17.5152329.04689396 18.8034141c-.11087171.808607 1.5447922.8654108 1.74654462 1.5736711.45112507 1.5836935 1.26771762 4.2578012 1.82112473 5.0467681 1.32325478 1.886503 4.16539958 2.5052123 8.52643439 1.856128l1.2217541 8.6341084L25.275237 30.175194l-3.0599325-8.3946c1.4174931-5.8968002 1.8681873-10.162933 1.3520828-12.79839836-.7741567-3.95319805-2.411617-5.93407935-7.5187549-7.8662856C10.9414946-.8162962 7.41608414 1.47667088 5.39981079 3.1580743c-1.34418224 1.12093562-2.23761572 4.33766099-2.68030044 9.6501761z"/>
    <linearGradient id="o" x1="-8.11273447%" x2="319.01222%" y1="66.4952206%" y2="232.792725%">
      <stop offset="0%" stop-color="#5937F4"/>
      <stop offset="100%" stop-color="#80FBFF"/>
    </linearGradient>
    <linearGradient id="p" x1="211.359815%" x2="29.2901057%" y1="137.808755%" y2="24.183211%">
      <stop offset="0%" stop-color="#798DEC"/>
      <stop offset="100%" stop-color="#101C59"/>
    </linearGradient>
    <linearGradient id="q" x1="0%" x2="129.868763%" y1="111.022806%" y2="-33.4295607%">
      <stop offset="0%" stop-color="#748AF0"/>
      <stop offset="100%" stop-color="#2D3973"/>
    </linearGradient>
    <path id="r" d="M14.7593294 4.65046858C21.4016576 1.5493652 24.8772788-.00077901 25.1861932.00003595c3.7328963.00984796 6.5147196 2.45574918 7.9422111 5.12418386 1.1795165 2.20489098 1.6196889 3.40530974 1.6196889 10.61797179 0 4.8084414.4656932 18.1784378 1.3970795 40.1099894-6.2638569 4.4200649-12.2880524 8.0283977-18.0725863 10.8249985C9.39578543 70.8720807.02573759 66.3694341.02573759 62.3502752V20.3673929l1.42885148-2.8248141C4.3206077 11.8765085 9.00580626 7.33661562 14.7593294 4.65046858z"/>
    <linearGradient id="s" x1="37.0153192%" x2="79.6817421%" y1="89.7032511%" y2="25.2166895%">
      <stop offset="0%" stop-color="#5C78FF" stop-opacity="0"/>
      <stop offset="100%" stop-color="#3A54D4"/>
    </linearGradient>
    <linearGradient id="u" x1="65.532187%" x2="19.2964%" y1="63.3253309%" y2="8.35245919%">
      <stop offset="0%" stop-color="#4415B8" stop-opacity="0"/>
      <stop offset="100%" stop-color="#5028BF"/>
    </linearGradient>
    <linearGradient id="v" x1="100%" x2="-21.6367466%" y1="57.8134498%" y2="25.3843329%">
      <stop offset="0%" stop-color="#4415B8"/>
      <stop offset="100%" stop-color="#9B54FF"/>
    </linearGradient>
    <linearGradient id="w" x1="55.116327%" x2="50%" y1="108.868102%" y2="-106.294444%">
      <stop offset="0%" stop-color="#4415B8"/>
      <stop offset="100%" stop-color="#9B54FF"/>
    </linearGradient>
    <linearGradient id="x" x1="55.116327%" x2="50%" y1="108.868102%" y2="-16.7298114%">
      <stop offset="0%" stop-color="#4415B8"/>
      <stop offset="100%" stop-color="#9B54FF"/>
    </linearGradient>
    <linearGradient id="y" x1="36.8742801%" x2="168.968532%" y1="184.216399%" y2="-28.3086974%">
      <stop offset="0%" stop-color="#4415B8"/>
      <stop offset="100%" stop-color="#CB9EFF"/>
    </linearGradient>
    <linearGradient id="z" x1="100%" x2="-21.6367466%" y1="50%" y2="25.3843329%">
      <stop offset="0%" stop-color="#B487F3"/>
      <stop offset="100%" stop-color="#9B54FF"/>
    </linearGradient>
    <linearGradient id="A" x1="184.002082%" x2="27.8848887%" y1="105.208776%" y2="14.8906185%">
      <stop offset="0%" stop-color="#4415B8"/>
      <stop offset="100%" stop-color="#A254FF"/>
    </linearGradient>
    <linearGradient id="B" x1="70.3677601%" x2="5.5231048%" y1="61.8658856%" y2="-45.0892787%">
      <stop offset="0%" stop-color="#FF895B"/>
      <stop offset="100%" stop-color="#FFEC9E"/>
    </linearGradient>
    <linearGradient id="C" x1="40.8338338%" x2="40.833835%" y1="217.894697%" y2="-94.3683645%">
      <stop offset="0%" stop-color="#FF895B"/>
      <stop offset="100%" stop-color="#FFEC9E"/>
    </linearGradient>
    <linearGradient id="D" x1="45.5190349%" x2="17.1465695%" y1="100%" y2="29.1459508%">
      <stop offset="0%" stop-color="#00A1C3"/>
      <stop offset="100%" stop-color="#002192"/>
    </linearGradient>
    <linearGradient id="F" x1="5.84462892%" y1="69.0936588%" y2="22.6569345%">
      <stop offset="0%" stop-color="#FFF"/>
      <stop offset="100%" stop-color="#A8B2DA"/>
    </linearGradient>
    <path id="E" d="M.1603405 11.8743149L7.561895 61.6298711c.07574527.5091833.3781372.9566187.82234338 1.2167837L38.5991597 80.5430856c1.0571106.619134 2.3655596.6217006 3.425091.0067185l49.8247627-28.919708c.4389882-.2548012.741157-.6924314.8238793-1.193222L100.924668.48166355.1603405 11.8743149z"/>
    <linearGradient id="G" x1="14.4529944%" x2="116.954591%" y1="65.9604753%" y2="27.6365151%">
      <stop offset="0%" stop-color="#FFF"/>
      <stop offset="100%" stop-color="#A8B2DA"/>
    </linearGradient>
    <linearGradient id="I" x1="39.5823836%" x2="50%" y1="120.821101%" y2="12.0471103%">
      <stop offset="0%" stop-color="#00A1C3"/>
      <stop offset="100%" stop-color="#002192"/>
    </linearGradient>
    <linearGradient id="J" x1="19.7665544%" x2="239.23913%" y1="20.2099158%" y2="138.098394%">
      <stop offset="0%" stop-color="#A2F8E4"/>
      <stop offset="100%" stop-color="#2EA6B4"/>
    </linearGradient>
    <linearGradient id="K" x1="36.8742801%" x2="86.8596858%" y1="184.216399%" y2="45.8729976%">
      <stop offset="0%" stop-color="#4415B8"/>
      <stop offset="100%" stop-color="#CB9EFF"/>
    </linearGradient>
    <linearGradient id="L" x1="68.4944337%" x2="28.6937743%" y1="93.3405571%" y2="-47.9122349%">
      <stop offset="0%" stop-color="#EE7849"/>
      <stop offset="100%" stop-color="#FFEC9E"/>
    </linearGradient>
    <linearGradient id="M" x1="182.755901%" x2="28.6937743%" y1="76.9802439%" y2="-47.9122349%">
      <stop offset="0%" stop-color="#FF895B"/>
      <stop offset="100%" stop-color="#FFEC9E"/>
    </linearGradient>
    <linearGradient id="N" x1="120.462706%" x2="-52.9900478%" y1="64.1853744%" y2="-116.181711%">
      <stop offset="0%" stop-color="#5937F4"/>
      <stop offset="100%" stop-color="#80FBFF"/>
    </linearGradient>
    <linearGradient id="O" x1="-36.6874835%" x2="169.868149%" y1="8.36485963%" y2="80.8457126%">
      <stop offset="0%" stop-color="#00A1C3"/>
      <stop offset="100%" stop-color="#002192"/>
    </linearGradient>
    <linearGradient id="P" x1="39.5823836%" y1="120.821101%" y2="-50.4849371%">
      <stop offset="0%" stop-color="#00A1C3"/>
      <stop offset="100%" stop-color="#002192"/>
    </linearGradient>
    <linearGradient id="Q" x1="37.215522%" x2="-29.3468288%" y1="29.3915418%" y2="-197.8182%">
      <stop offset="0%" stop-color="#00A1C3"/>
      <stop offset="100%" stop-color="#002192"/>
    </linearGradient>
    <path id="R" d="M.24942048 8.90516176C-.13494226 17.2770866.65634432 23.3500886 2.62328023 27.124168c1.9669359 3.7740793 6.50674644 2.4678176 13.61943157-3.9187852l4.3978016-10.9433948C22.0726649 4.68616259 19.3244733.8982499 12.3959387.8982499c-6.9285346 0-10.97737401 2.66897062-12.14651822 8.00691186z"/>
    <linearGradient id="T" x1="71.9955027%" x2="71.9955034%" y1="100%" y2="-24.1074632%">
      <stop offset="0%" stop-color="#FF895B"/>
      <stop offset="100%" stop-color="#FFEC9E"/>
    </linearGradient>
    <linearGradient id="U" x1="133.665428%" x2="0%" y1="125.931064%" y2="-62.2625851%">
      <stop offset="0%" stop-color="#5937F4"/>
      <stop offset="100%" stop-color="#80FBFF"/>
    </linearGradient>
    <linearGradient id="V" x1="110.101875%" x2="0%" y1="42.4392318%" y2="-62.2625851%">
      <stop offset="0%" stop-color="#5937F4"/>
      <stop offset="100%" stop-color="#80FBFF"/>
    </linearGradient>
  </defs>
  <g fill="none" fill-rule="evenodd" transform="translate(0 1)">
    <path fill="url(#a)" d="M190.264728 425.583505l234.717059 134.745249c1.542547.885538 3.437011.89511 4.988428.025204L640.05663 442.554932c1.838492-1.030873 2.493196-3.356953 1.462322-5.195445-.335629-.598571-.826442-1.095573-1.420761-1.438675L401.635684 298.255734c-.594638-.343286-1.327856-.340644-1.920005.006918L190.243681 421.212281c-1.203706.706516-1.606759 2.255057-.900243 3.458763.222514.379102.540063.693608.92129.912461z" opacity=".1" transform="translate(58.976085 39.975248)"/>
    <g transform="translate(59.36932 218.336634)">
      <path fill="url(#b)" d="M1.51556603 139.109515L270.774844 295.004229c1.560463.903471 3.484057.907213 5.048024.009822l213.764209-122.656184c1.828205-1.049009 2.459867-3.381451 1.410858-5.209656-.335397-.584527-.819592-1.069821-1.403357-1.406543L218.820084 9.55625893c-.591992-.341467-1.321394-.34028055-1.912272.0031105L1.51200445 134.737425c-1.20674882.701306-1.61649081 2.248091-.91518435 3.45484.2211505.380537.53784906.69672.91874593.91725z" opacity=".30000001"/>
      <path fill="url(#c)" d="M1.51556603 130.305609L270.774844 286.200323c1.560463.903471 3.484057.907214 5.048024.009822l213.764209-122.656183c1.828205-1.049009 2.459867-3.381452 1.410858-5.209656-.335397-.584528-.819592-1.069822-1.403357-1.406543L218.820084.75235354c-.591992-.341467-1.321394-.34028055-1.912272.0031105L1.51200445 125.933519c-1.20674882.701307-1.61649081 2.248091-.91518435 3.45484.2211505.380537.53784906.69672.91874593.91725z"/>
      <ellipse cx="369" cy="210" fill="#ACB4DE" opacity=".90000004" rx="9" ry="6"/>
      <path fill="url(#d)" d="M130.531356 92.2961439l114.56072 66.4137581c.663724.384777 1.482275.386371 2.147492.004181l90.952589-52.255394c.776737-.446262 1.04464-1.4377.598378-2.214438-.142376-.247811-.347702-.453604-.595189-.596541L222.987795 37.1088648c-.251797-.145427-.56218-.1449218-.813503.0013241l-91.644451 53.3284222c-.5127.2983434-.686471.9558246-.388128 1.4685252.093875.1613221.228168.2953966.389643.3890076z" opacity=".30000001"/>
      <path fill="url(#e)" d="M162.532938 174.295839l116.039341 67.182404 94.130897-54.108197-117.714975-68.260002c-.25198-.146117-.562965-.145881-.814723.000618l-91.642585 53.327337c-.5127.298343-.686471.955825-.388128 1.468525.093979.161502.228465.295692.390173.389315z" opacity=".30000001"/>
      <path stroke="#70A8FB" stroke-linecap="round" stroke-width="2" d="M279.73875 183.933467l-29.108069 17.347785" opacity=".5"/>
      <path stroke="#70A8FB" stroke-linecap="round" stroke-width="2" d="M290.73875 190.933467l-29.108069 17.347785M286.73875 207.30139l-15.067425 8.979862" opacity=".2"/>
      <path fill="url(#f)" d="M187.510967 84.9305757L329.7782 166.380202l11.544455-6.456857-142.26613-81.3680414c-3.554115-2.0327494-7.910841-2.0657008-11.495297-.0869427-1.792294.9894159-2.443156 3.2444379-1.45374 5.0367325.328352.5947998.813859 1.0879179 1.403479 1.4254823z" opacity=".2"/>
    </g>
    <g transform="translate(234.301666 51.975248)">
      <path fill="url(#g)" d="M31.205074 100.259265v204.257127c0 1.626005 1.3181371 2.944142 2.9441417 2.944142.5139201 0 1.0188885-.134524 1.464697-.390197l85.4706863-49.017768c1.830147-1.049596 2.958889-2.998128 2.958889-5.107889V48.5538578c0-1.6260046-1.318137-2.9441417-2.944142-2.9441417-.515094 0-1.021175.1351393-1.4677.3919218L34.1579571 95.1548255c-1.8267656 1.0505146-2.9528831 2.9971541-2.9528831 5.1044395z" transform="matrix(-1 0 0 1 155.248562 0)"/>
      <path fill="#C7BDEC" d="M27.6284608 48.5471081l5.0006987-2.5156292.753283 2.1097298-1.7314717 2.3358288-2.5208133-.6412053z"/>
      <path fill="#CCA1E9" d="M122.158966 307.286059l-4.818068 2.419803-1.731915-2.886981 5.532149-4.406615z"/>
      <path fill="url(#h)" d="M26.0042283 102.858275v204.257127c0 1.626005 1.3181372 2.944142 2.9441417 2.944142.5139201 0 1.0188885-.134525 1.4646971-.390197l85.4706859-49.017768c1.830147-1.049596 2.958889-2.998128 2.958889-5.107889V51.1528677c0-1.6260046-1.318137-2.9441417-2.944141-2.9441417-.515095 0-1.021175.1351393-1.467701.3919218L28.9571114 97.7538354c-1.8267656 1.0505146-2.9528831 2.9971536-2.9528831 5.1044396z" transform="matrix(-1 0 0 1 144.84687 0)"/>
      <path fill="url(#i)" d="M31.205074 105.032174v169.974777c0 1.430884 1.1599607 2.590845 2.5908447 2.590845.4424488 0 .8775261-.113309 1.2637686-.329128l75.4045537-42.13343c1.638797-.915702 2.654152-2.646158 2.654152-4.523434V60.5994994c0-1.430884-1.15996-2.5908446-2.590844-2.5908446-.442782 0-.878175.113479-1.264627.3296067L33.8575111 100.509698c-1.6378353.91598-2.6524371 2.645903-2.6524371 4.522476z" transform="matrix(-1 0 0 1 144.323468 0)"/>
      <path fill="url(#b)" d="M31.3881544 174.453126v59.233592c0 .581556.4714442 1.053 1.053 1.053.1832881 0 .363402-.047842.522531-.138795l43.6473083-24.947444v-62.273318L32.4489992 172.62477c-.6560157.375002-1.0608448 1.072721-1.0608448 1.828356z" opacity=".2" transform="matrix(-1 0 0 1 107.999148 0)"/>
      <path fill="url(#b)" d="M31.3881544 108.969997v59.251984c0 .581556.4714442 1.053 1.053 1.053.17266 0 .3426711-.042457.4950593-.123632l79.7806963-42.49787V64.3801615L32.5039815 107.11129c-.6867609.365852-1.1158271 1.080576-1.1158271 1.858707z" opacity=".2" transform="matrix(-1 0 0 1 144.105064 0)"/>
      <path fill="url(#j)" d="M0 178.440715v61.232725c0 .581556.47144416 1.053 1.053 1.053.1855439 0 .36779364-.049026.52829623-.142114l64.98028987-37.687337c.6495734-.37674 1.0494076-1.070852 1.0494076-1.82177V139.61865c0-.581555-.4714442-1.053-1.053-1.053-.1864632 0-.3695825.049513-.530639.143478L1.04472218 176.621669C.39779251 176.999105 0 177.691732 0 178.440715z" transform="matrix(-1 0 0 1 67.610994 0)"/>
      <path stroke="#FFF" stroke-linecap="round" stroke-width="2.5" d="M89.4809102 248.225654l10.9316608 6.74512" opacity=".14999999"/>
      <ellipse cx="65.3112578" cy="266.39001" fill="#5D4CF5" opacity=".2" rx="4.55073996" ry="6.49752475" transform="scale(1 -1) rotate(30 1059.49230995 0)"/>
      <path stroke="#A76EF8" stroke-linecap="round" stroke-width="3" d="M107.568062 78.5696364v10.9516182M43.5680621 41.5696364v10.9516182"/>
      <path fill="url(#g)" d="M3.205074 55.2592654v28.2571267c0 1.6260045 1.31813713 2.9441417 2.94414168 2.9441417.51392011 0 1.01888851-.1345242 1.46469704-.3901971L93.0845986 37.0525693c1.8301472-1.0495965 2.9588893-2.9981281 2.9588893-5.1078891V3.55385779c0-1.62600456-1.3181372-2.94414169-2.9441417-2.94414169-.5150943 0-1.0211748.13513929-1.4677002.39192176L6.15795709 50.1548255C4.33119147 51.2053401 3.205074 53.1519796 3.205074 55.2592654z" transform="matrix(-1 0 0 1 126.248562 0)"/>
      <path fill="url(#h)" d="M.205074 57.2592654v28.2571267c0 1.6260045 1.31813713 2.9441417 2.94414168 2.9441417.51392011 0 1.01888851-.1345242 1.46469704-.3901971L90.0845986 39.0525693c1.8301472-1.0495965 2.9588893-2.9981281 2.9588893-5.1078891V5.55385779c0-1.62600456-1.3181372-2.94414169-2.9441417-2.94414169-.5150943 0-1.0211748.13513929-1.4677002.39192176L3.15795709 52.1548255c-1.82676562 1.0505146-2.9528831 2.9971541-2.9528831 5.1044399z" transform="matrix(-1 0 0 1 120.248562 0)"/>
      <path fill="#C9B4EB" d="M47.58692338 28.13596016c-.03314551-.06343109-.14915303-.21287065-.34802605-.44832315-.19887302-.23545251-.44746057-.50464476-.7457701-.80758482-.29830953-.30294006-.62423542-.60477475-.97778746-.90551313-.35355204-.30073838-.70709877-.5512343-1.06065081-.75149528-.9722681-.5507177-1.45839486-.49673479-1.45839486.16195036 0 .20095479.0524796.39814039.15744036.59156273.10496076.19342234.25963745.40104807.46403472.62288342.20439728.22183536.46127107.46502018.77062911.72956178.30935803.2645416.66842893.5684045 1.07722347.91159781.56347356.4754641 1.07169699.93358576 1.52468554 1.3743787.45298854.44079294.8369182.88712233 1.15180048 1.33900156.31488228.45187923.55794562.92168522.72919742 1.40943206.1712518.4877468.2568764 1.0051343.2568764 1.5521779 0 .6698493-.1242938 1.1660185-.3728851 1.4885224-.24859125.3225039-.57727922.5103202-.98607377.5634543-.40879454.0531342-.87834879-.0062996-1.40867685-.1783033-.53032805-.1720037-1.07722066-.4175848-1.64069422-.7367508-.43089154-.244068-.87282496-.5278825-1.32581351-.8514518-.45298854-.3235693-.89492196-.6715767-1.3258135-1.0440325-.43089155-.3724559-.84796621-.7622025-1.2512365-1.16925169-.40327029-.40704916-.77615161-.82479252-1.11865515-1.2532426l1.19323216-1.71882183c.044194.0808534.18782236.26826608.43088939.56224367.24306702.2939776.54413416.62080561.90321045.98049384.35907629.35968823.75957845.72609281 1.20151849 1.09922474.44194005.37313197.88939763.68798537 1.34238618.94456977.9612196.5444595 1.44182219.5208395 1.44182219-.0708607 0-.2232831-.07181418-.4481663-.21544469-.67465631-.14363052-.22649003-.34250056-.470312-.59661608-.73147321-.25411553-.2611612-.55518267-.54054227-.90321046-.83815157-.34802778-.29760929-.72643327-.62358779-1.13522781-.97794525-.54137656-.47411195-1.01093081-.92149438-1.40867686-1.34216069-.39774604-.42066632-.72643402-.8329144-.98607379-1.23675663-.25963978-.40384222-.45298565-.80920397-.58004341-1.21609741-.12705777-.40689344-.19058569-.83361686-.19058569-1.28018306 0-.62519267.11600752-1.11210041.34802604-1.4607378.23201853-.3486374.54689609-.57497718.94464213-.67902615.39774604-.10404897.85901404-.0911736 1.38381785.03862646.5248038.12980007 1.07998266.36053777 1.66555322.69222002.40879454.23155176.81205878.49904497 1.20980482.80248766.39774604.30344269.77891362.61982171 1.14351415.94914655.36460054.32932484.70433686.66131009 1.01921914.99596569.31488228.33465561.60490109.65522556.87006508.96171946l-1.19323212 1.6015988zM63.1892661 35.9017755l-3.5796965-2.0276323v9.4783201l-2.7179177-1.5394986v-9.4783201l-3.5962691-2.03701952v-2.41144541L63.1892661 33.49033v2.4114455zm9.5201732 14.9712684c-.8728316-.4943943-1.6683118-1.1180166-2.3864643-1.8708855-.7181526-.7528689-1.3313352-1.5551238-1.8395663-2.4067888-.508231-.851665-.903209-1.720111-1.1849458-2.605364-.2817368-.8852531-.4226031-1.7130305-.4226031-2.4833572 0-.7814909.1463905-1.4521407.4391758-2.0119697.2927852-.5598289.7015736-.9674189 1.2263775-1.2227822.5248038-.2553633 1.1462726-.3443248 1.8644252-.2668872.7181526.0774375 1.5025844.3570911 2.353319.8389691.8728316.4943943 1.6683117 1.1180165 2.3864643 1.8708854.7181526.752869 1.3313352 1.5579149 1.8395662 2.415162.5082311.857247.900447 1.7269195 1.1766595 2.6090434.2762126.882124.4143167 1.697173.4143167 2.4451713 0 .7814909-.1463904 1.4521407-.4391757 2.0119697-.2927853.5598289-.6988116.9689834-1.2180911 1.2274758-.5192796.2584924-1.1379864.3518094-1.856139.2799539-.7181525-.0718554-1.5025843-.348718-2.3533189-.830596zm-3.0659438-7.7652431c0 .4577304.06629.9390473.1988721 1.4439651.132582.5049178.3286899.998365.5883297 1.4803563s.5828036.9329753.9695011 1.3529656c.3866976.4199902.828631.7707886 1.3258135 1.0524056.5192796.2941333.9722613.4446559 1.3589589.4515724.3866975.0069165.7070993-.0879084.9612148-.2844775.2541155-.1965691.4446993-.4737752.5717571-.8316263.1270577-.3578512.1905856-.7600539.1905856-1.2066201 0-.4577303-.06629-.9390472-.198872-1.443965-.132582-.5049179-.331452-.9971385-.5966161-1.4766769-.265164-.4795383-.5883278-.9249403-.9695011-1.3362194-.3811733-.411279-.8203446-.7577219-1.3175272-1.0393389-.5192795-.2941333-.9694992-.4458824-1.3506725-.4552519-.3811733-.0093695-.701575.0798734-.9612148.2677313-.2596397.187858-.4529856.4607085-.5800434.8185597-.1270577.3578512-.1905857.7600538-.1905857 1.20662zm14.0942298 13.9114715V45.1295067l5.3032541 3.0038997c.552425.3129078 1.0634106.7195651 1.5329718 1.2199839.4695613.5004189.8755877 1.0374123 1.2180912 1.6109964.3425035.5735841.6104257 1.1551556.8037744 1.744732.1933488.5895764.2900218 1.1299679.2900218 1.6211907 0 .3684171-.0441934.6978415-.1325814.988283s-.2154439.5394384-.3811714.7469982c-.1657275.2075599-.3673596.364077-.6049024.4695559-.2375428.105479-.5054649.1574638-.8037744.1559559l2.5853363 5.8853844-3.0659437-1.7366295-2.253883-5.1115255-1.7732756-1.0044289v3.834868l-2.7179177-1.5394986zm2.7179177-4.6900687l2.4859004 1.408078c.3204065.1814865.5966149.1844332.8286334.0088402.2320185-.175593.3480261-.5034139.3480261-.9834725 0-.4912229-.1325801-.9570592-.3977441-1.3975229-.265164-.4404638-.5524207-.7483052-.8617788-.9235336l-2.403037-1.361142v3.2487528zm20.24269 15.284103v2.4114454l-8.2697618-4.6842061V53.4507803l8.1206078 4.5997214v2.4114454l-5.4026901-3.0602228v2.3109685l4.6403473 2.6284123v2.2272378l-4.6403473-2.6284123v2.5286685l5.5518441 3.1447075z" opacity=".5"/>
      <path fill="#FA8B8E" d="M46.58692338 29.13596016c-.03314551-.06343109-.14915303-.21287065-.34802605-.44832315-.19887302-.23545251-.44746057-.50464476-.7457701-.80758482-.29830953-.30294006-.62423542-.60477475-.97778746-.90551313-.35355204-.30073838-.70709877-.5512343-1.06065081-.75149528-.9722681-.5507177-1.45839486-.49673479-1.45839486.16195036 0 .20095479.0524796.39814039.15744036.59156273.10496076.19342234.25963745.40104807.46403472.62288342.20439728.22183536.46127107.46502018.77062911.72956178.30935803.2645416.66842893.5684045 1.07722347.91159781.56347356.4754641 1.07169699.93358576 1.52468554 1.3743787.45298854.44079294.8369182.88712233 1.15180048 1.33900156.31488228.45187926.55794566.92168526.72919743 1.40943206.17125177.4877468.25687637 1.0051343.25687637 1.5521779 0 .6698493-.12429377 1.1660185-.37288505 1.4885224-.24859128.3225039-.57727925.5103202-.9860738.5634543-.40879454.0531342-.87834879-.0062996-1.40867685-.1783033-.53032805-.1720037-1.07722066-.4175848-1.64069422-.7367508-.43089154-.244068-.87282496-.5278825-1.32581351-.8514518-.45298854-.3235693-.89492196-.6715767-1.3258135-1.0440325-.43089155-.3724559-.84796621-.7622025-1.2512365-1.1692517-.4032703-.4070492-.77615161-.8247925-1.11865515-1.25324259l1.19323216-1.71882183c.044194.0808534.18782236.26826608.43088939.56224367.24306702.2939776.54413416.62080561.90321045.98049384.35907629.35968823.75957845.72609281 1.20151849 1.09922471.44194005.373132.88939763.6879854 1.34238618.9445698.9612196.5444595 1.44182219.5208395 1.44182219-.0708607 0-.2232831-.07181418-.4481663-.21544469-.6746563-.14363052-.22649-.34250056-.470312-.59661608-.7314732-.25411553-.26116122-.55518267-.54054229-.90321046-.83815159-.34802778-.29760929-.72643327-.62358779-1.13522781-.97794525-.54137656-.47411195-1.01093081-.92149438-1.40867686-1.34216069-.39774604-.42066632-.72643402-.8329144-.98607379-1.23675663-.25963978-.40384222-.45298565-.80920397-.58004341-1.21609741-.12705777-.40689344-.1905857-.83361686-.1905857-1.28018306 0-.62519267.11600753-1.11210041.34802605-1.4607378.23201853-.3486374.54689609-.57497718.94464213-.67902615.39774604-.10404897.85901404-.0911736 1.38381785.03862646.5248038.12980007 1.07998266.36053777 1.66555322.69222002.40879454.23155176.81205878.49904497 1.20980482.80248766.39774604.30344269.77891362.61982171 1.14351415.94914655.36460054.32932484.70433686.66131009 1.01921914.99596569.31488228.33465561.60490109.65522556.87006511.96171946l-1.19323215 1.6015988zM62.1892661 36.9017755l-3.5796965-2.0276323v9.4783201l-2.7179177-1.5394986v-9.4783201l-3.5962691-2.03701952v-2.41144541L62.1892661 34.49033v2.4114455zm9.5201732 14.9712684c-.8728316-.4943943-1.6683118-1.1180166-2.3864643-1.8708855-.7181526-.7528689-1.3313352-1.5551238-1.8395663-2.4067888-.508231-.851665-.903209-1.720111-1.1849458-2.605364-.2817368-.8852531-.4226031-1.7130305-.4226031-2.4833572 0-.7814909.1463905-1.4521407.4391758-2.0119697.2927852-.5598289.7015736-.9674189 1.2263775-1.2227822.5248038-.2553633 1.1462726-.3443248 1.8644252-.2668872.7181526.0774375 1.5025844.3570911 2.353319.8389691.8728316.4943943 1.6683117 1.1180165 2.3864643 1.8708854.7181526.752869 1.3313352 1.5579149 1.8395662 2.415162.5082311.857247.900447 1.7269195 1.1766595 2.6090434.2762126.882124.4143167 1.697173.4143167 2.4451713 0 .7814909-.1463904 1.4521407-.4391757 2.0119697-.2927853.5598289-.6988116.9689834-1.2180911 1.2274758-.5192796.2584924-1.1379864.3518094-1.856139.2799539-.7181525-.0718554-1.5025843-.348718-2.3533189-.830596zm-3.0659438-7.7652431c0 .4577304.06629.9390473.1988721 1.4439651.132582.5049178.3286899.998365.5883297 1.4803563s.5828036.9329753.9695011 1.3529656c.3866976.4199902.828631.7707886 1.3258135 1.0524056.5192796.2941333.9722613.4446559 1.3589589.4515724.3866975.0069165.7070993-.0879084.9612148-.2844775.2541155-.1965691.4446993-.4737752.5717571-.8316263.1270577-.3578512.1905856-.7600539.1905856-1.2066201 0-.4577303-.06629-.9390472-.198872-1.443965-.132582-.5049179-.331452-.9971385-.5966161-1.4766769-.265164-.4795383-.5883278-.9249403-.9695011-1.3362194-.3811733-.411279-.8203446-.7577219-1.3175272-1.0393389-.5192795-.2941333-.9694992-.4458824-1.3506725-.4552519-.3811733-.0093695-.701575.0798734-.9612148.2677313-.2596397.187858-.4529856.4607085-.5800434.8185597-.1270577.3578512-.1905857.7600538-.1905857 1.20662zm14.0942298 13.9114715V46.1295067l5.3032541 3.0038997c.552425.3129078 1.0634106.7195651 1.5329718 1.2199839.4695613.5004189.8755877 1.0374123 1.2180912 1.6109964.3425035.5735841.6104257 1.1551556.8037744 1.744732.1933488.5895764.2900218 1.1299679.2900218 1.6211907 0 .3684171-.0441934.6978415-.1325814.988283s-.2154439.5394384-.3811714.7469982c-.1657275.2075599-.3673596.364077-.6049024.4695559-.2375428.105479-.5054649.1574638-.8037744.1559559l2.5853363 5.8853844-3.0659437-1.7366295-2.253883-5.1115255-1.7732756-1.0044289v3.834868l-2.7179177-1.5394986zm2.7179177-4.6900687l2.4859004 1.408078c.3204065.1814865.5966149.1844332.8286334.0088402.2320185-.175593.3480261-.5034139.3480261-.9834725 0-.4912229-.1325801-.9570592-.3977441-1.3975229-.265164-.4404638-.5524207-.7483052-.8617788-.9235336l-2.403037-1.361142v3.2487528zm20.24269 15.284103v2.4114454l-8.2697618-4.6842061V54.4507803l8.1206078 4.5997214v2.4114454l-5.4026901-3.0602228v2.3109685l4.6403473 2.6284123v2.2272378l-4.6403473-2.6284123v2.5286685l5.5518441 3.1447075z"/>
    </g>
    <path fill="url(#k)" d="M111.666437 281.841036l97.866069-56.142148-112.2261001-68.683909c-1.2519225-.766194-2.8229238-.785184-4.0930016-.049477L2.72963373 209.379289c-1.91158633 1.107309-2.56358206 3.554607-1.45627323 5.466193.33873229.584766.82009754 1.074179 1.39916705 1.422559L111.666437 281.841036z" opacity=".1" transform="matrix(-1 0 0 1 542.266438 40)"/>
    <path fill="#FFF" d="M537.00000082 85.0768467V221.429725c0 .868039-.7036848 1.571724-1.571724 1.571724-.26532837 0-.5263385-.06717-.75870607-.19525L457.61602 180.334648c-1.0071017-.555109-1.6307077-1.615843-1.6260096-2.76579l.5550996-135.87350253c.0038253-.93633455.7659755-1.69228265 1.70231-1.68845733.2841.00116066.5633533.07369656.8121049.21094382l76.31559893 42.10669524c1.00242369.5530815 1.624877 1.6074285 1.624877 2.7523095z"/>
    <path stroke="#DAEBF4" stroke-width="2" d="M486.99999993 73.4374868v27.3361672c0 .1295206-.10499718.2345178-.23451776.2345178-.04063317 0-.08056919-.0105574-.11589403-.0306376L467.7426266 90.23003c-.4662258-.2650222-.7509864-.7630443-.7429003-1.2992698l.4013013-26.61236467c.0027618-.1831488.1534721-.32938136.3366209-.32661956.054313.00081901.1075934.01496563.1551591.04119667l18.34756341 10.11812086c.46861675.2584279.75962892.7512423.75962892 1.2863933z" opacity=".69999999"/>
    <path stroke="#EF8F8C" stroke-linecap="round" stroke-width="2.14326" d="M499.265702 90.9024217l21.056861 11.5877374" opacity=".40000001"/>
    <path stroke="#4799C8" stroke-linecap="round" stroke-width="2.14326" d="M499.265702 99.8483905l9.1566085 5.0389454" opacity=".2"/>
    <path stroke="#FA8B8E" stroke-linecap="round" stroke-linejoin="round" stroke-width="2.5" d="M473 78.9193452L474.82079434 85 482 77"/>
    <path stroke="#DAEBF4" stroke-width="2" d="M486.99999993 113.4374868v27.3361672c0 .1295206-.10499718.2345178-.23451776.2345178-.04063317 0-.08056919-.0105574-.11589403-.0306376L467.7426266 130.23003c-.4662258-.2650222-.7509864-.7630443-.7429003-1.2992698l.4013013-26.61236467c.0027618-.1831488.1534721-.32938136.3366209-.32661956.054313.00081901.1075934.01496563.1551591.04119667l18.34756341 10.11812086c.46861675.2584279.75962892.7512423.75962892 1.2863933z" opacity=".69999999"/>
    <path stroke="#EF8F8C" stroke-linecap="round" stroke-width="2.14326" d="M499.265702 130.9024217l21.056861 11.5877374" opacity=".40000001"/>
    <path stroke="#4799C8" stroke-linecap="round" stroke-width="2.14326" d="M499.265702 139.8483905l9.1566085 5.0389454" opacity=".2"/>
    <path stroke="#FA8B8E" stroke-linecap="round" stroke-linejoin="round" stroke-width="2" d="M473 118.9193452L474.82079434 125 482 117"/>
    <path stroke="#DAEBF4" stroke-width="2" d="M486.99999993 153.4374868v27.3361672c0 .1295206-.10499718.2345178-.23451776.2345178-.04063317 0-.08056919-.0105574-.11589403-.0306376L467.7426266 170.23003c-.4662258-.2650222-.7509864-.7630443-.7429003-1.2992698l.4013013-26.61236467c.0027618-.1831488.1534721-.32938136.3366209-.32661956.054313.00081901.1075934.01496563.1551591.04119667l18.34756341 10.11812086c.46861675.2584279.75962892.7512423.75962892 1.2863933z" opacity=".69999999"/>
    <path stroke="#EF8F8C" stroke-linecap="round" stroke-width="2.14326" d="M499.265702 170.9024217l21.056861 11.5877374" opacity=".40000001"/>
    <path stroke="#4799C8" stroke-linecap="round" stroke-width="2.14326" d="M499.265702 179.8483905l9.1566085 5.0389454" opacity=".2"/>
    <path stroke="#FA8B8E" stroke-linecap="round" stroke-linejoin="round" stroke-width="2.5" d="M473 158.9193452L474.82079434 165 482 157"/>
    <path fill="url(#l)" d="M29.2381973 74.5345611c-1.4046196 7.7109548-4.8021851 16.0153872-10.1926965 24.913297-8.085767 13.3468649-15.45989743 13.8379559-15.5527519 21.3939449-.06190298 5.037326-.91036088 10.387211-2.5453737 16.049656l.30962133-77.6357598 1.37860127-1.3756755 3.98571033 2.8022146L4.54886839 89.786196l3.20491182 1.0798932 5.90353489-7.3051096 8.7274341-10.2208645 6.8534481 1.194446z" opacity=".2" transform="translate(455 40)"/>
    <path fill="url(#k)" d="M169.2 290.819589l43.475225-28.58936-107.011644-65.504458c-13.7968299-8.445378-31.248292-8.083697-44.6833647.926062-7.7388958 5.189818-9.8053315 15.670611-4.6155133 23.409507 1.3786601 2.055815 3.19279 3.783091 5.3137168 5.059316L169.2 290.819589z" opacity=".1" transform="translate(332 40)"/>
    <g>
      <g transform="matrix(-1 0 0 1 440.456246 70)">
        <mask id="n" fill="#fff">
          <use xlink:href="#m"/>
        </mask>
        <use fill="#DAA087" xlink:href="#m"/>
        <path fill="#414141" d="M11.3715458 15.4385965l-1.53457148 5.7138398L6.288583 22.2524232c-.52220313 1.3713449-1.03182839 2.2068877-1.52887578 2.5066285-.49704739.2997408-1.13813396.2518468-1.92325972-.143682-.11714786.6560752.30582858 1.2214544 1.26892931 1.6961375 1.44465111.7120247 3.27521078 1.4221916 5.37271229 1.273029 1.3983343-.0994417 2.2846799-.2003489 2.6590366-.3027217l.5411352-9.53344.2153439-2.7969875-1.522059.4872095z" mask="url(#n)"/>
        <path fill="#EDB39B" d="M13.2441863 20.1252482c1.4621602 0 2.6474753-1.1768175 2.6474753-2.6284955s-1.1853151-2.6284955-2.6474753-2.6284955" mask="url(#n)"/>
        <ellipse cx="-4.43464333" cy="18.7411717" fill="#DAA087" mask="url(#n)" rx="1.99585388" ry="1.99962282"/>
      </g>
      <path fill="url(#o)" d="M3.07694419 11.3330878c4.40936909 3.829643 10.33742191 7.2213017 12.30202201 6.89364 3.1298743-.5220094 3.5657825-3.787028 2.9957244-6.3387199-.4387988-1.96414981-9.66972726-5.86764277-14.96356555-6.83787803-1.58356217-.29022946-4.74354994 2.45331491-.33418086 6.28295793z" transform="scale(-1 1) rotate(-3 4359.82092319 8186.16093996)"/>
      <path fill="#FEB8AA" fill-rule="nonzero" d="M410.83152755 243.24361137c.14672923-1.61502997-1.05838522-3.0513202-2.69169853-3.20804402-1.6333134-.15672385-3.07632308 1.02546685-3.22305231 2.64049682l-.55555216 6.1148885c-.14672926 1.61503005 1.05838519 3.05132027 2.6916986 3.20804408 1.63331333.15672379 3.07632298-1.02546683 3.22305232-2.64049681l.55555208-6.11488857z"/>
      <path fill="url(#p)" d="M2.09589961.41353302c-2.70604493 12.29839298-2.70604493 28.62525218 0 48.98057748 2.70604493 20.3553252 5.15413057 35.9267819 7.3442569 46.7143698.50258184 2.596995 1.66989329 4.4010307 3.50193449 5.4121077 2.7480617 1.516615 4.9239861.787508 6.1691414-1.8056585 1.2451553-2.5931668-3.4428564-56.6618545-3.541685-69.6282594-.0440718-5.7822545 3.5488954-21.04369184 1.7097758-24.48295291C16.0532435 3.31087647 10.9921023 1.58081508 2.09589961.41353302z" transform="matrix(-1 0 0 1 422.493876 148.609482)"/>
      <path stroke="#FFF" stroke-linecap="round" stroke-width=".63" d="M416.31395383 181.4671972l-6.32450533 68.1499058" opacity=".1"/>
      <g>
        <path fill="url(#o)" d="M3.58976823 12.5002329c5.14426393 4.5135079 12.06032557 8.5108199 14.35235897 8.1246472 3.65152-.6152254 4.1600796-4.4632829 3.4950119-7.4706342-.511932-2.3148908-11.2813485-6.9154361-17.45749321-8.05892765-1.84748919-.34205615-5.5341416 2.89140685-.38987766 7.40491465z" transform="scale(-1 1) rotate(-3 4507.33687324 8603.16236998)"/>
        <path fill="#FEB8AA" fill-rule="nonzero" d="M429.43925609 250.98310218c-.0897558-1.90835343-1.71334661-3.38405242-3.62639159-3.29606595-1.91304497.08798646-3.39111286 1.7063397-3.30135707 3.61469312l.33983689 7.2254811c.08975578 1.9083535 1.7133466 3.38405247 3.62639158 3.29606597 1.91304496-.08798639 3.39111286-1.70633964 3.30135707-3.61469314l-.33983688-7.2254811z"/>
        <path fill="url(#q)" d="M4.05647277 7.57904962C4.22936261 19.4576724 5.66883 35.5746465 8.37487493 55.9299718c2.70604497 20.3553253 3.90663987 35.8521417 3.60178497 46.4904492 0 1.992042.9264831 3.664545 2.7794495 5.017509 2.7794496 2.029445 6.4347591-.436178 7.1180653-2.094602.6833061-1.658424 2.7809307-59.4269588 2.7809307-72.3973009 0-3.3650473 9.4065822-10.046069 12.1491932-13.0585917 4.308981-4.7330456 2.513483-17.35313271 1.4000317-19.43535166-.7423008-1.38814596-12.12492.98750933-34.14785753 7.12696588z" transform="matrix(-1 0 0 1 443.420029 152.396646)"/>
        <path stroke="#FFF" stroke-linecap="round" stroke-width="1.07163" d="M416.7867439 168.8076919l6.4900703 3.6782147" opacity=".2"/>
      </g>
      <g fill="#DAA087">
        <path d="M442.40077145 102.95905005c.02499251-.09809133-.82740737-2.61031356-.96295672-3.006519-1.07823922-3.15164921 2.86599772-7.39790044 3.6876849-6.75133966.8216872.64656079.16911974 3.79985066.67076793 4.48936326.53884222.74063558 2.36812271-1.67954335 2.79255189-1.24192687.69142034.71290325-.66726692 2.03693983-.99635124 4.03233284-.31176626 1.89038555-.66245531 3.70061735-.6701122 3.71953669-.00759248.01876013-.27562484 1.4060558-.74538163 3.55612692-1.10661354 5.0649568-6.69406776 9.27266904-4.65501357-.85962634.30180894-1.49972384.6004671-2.8454963.87881064-3.93794784z"/>
        <path d="M414.5572984 99.90222633l19.49824612 24.56955085c4.50870873-10.95469461 7.15237221-17.54882454 7.9309904-19.7823897.62268898-1.78626243 4.74445101.62189668 4.46695468 2.0800991-.416125 2.18667575-4.05526237 27.4580264-12.61126836 28.71046403-5.704004.8349585-13.26638633-4.15361647-22.68714687-14.96572508-3.13794048-3.18104419-4.31241821-6.79192988-3.52343327-10.8326569.78898504-4.04072697 3.09753749-7.30050777 6.9256573-9.7793423z"/>
      </g>
      <g>
        <g transform="matrix(-1 0 0 1 440.580721 97.719872)">
          <mask id="t" fill="#fff">
            <use xlink:href="#r"/>
          </mask>
          <use fill="#FFF" xlink:href="#r"/>
          <path fill="url(#s)" d="M16.3019811 17.2428792c1.0175268 9.0781524-1.1131591 18.0093235-6.39205766 26.7935133-2.42707578 4.0387013-3.95980398 21.4094152-6.55882466 25.1130738-2.03590579 2.9012081-5.53523426 2.5218902-10.49798542-1.1379539V35.9867516l9.21930016-10.2334398 14.22956758-8.5104326z" mask="url(#t)" opacity=".14999999"/>
        </g>
        <path stroke="#A365FB" stroke-linecap="round" stroke-width="3" d="M463.2114646 108.1278749l18.01111203 6.59139379"/>
        <path fill="#DAA087" d="M436.66116427 111.86174416l14.40872844 17.7102926c7.55109568-8.98313053 12.0226895-14.41843208 13.41478172-16.3059045.20409348-.27672065 4.48813577-4.44041644 5.56913905-4.44041644.72564377 0 2.726062-.08725581 3.05589717.78016771.32983518.86742353-.81308714.59733818-.32887075.94338951.57567264.41141165 1.08658446.81253024 1.35866631 1.10046968.76335361.80784377-.59079552 1.58163958-1.58919254 2.87483918s-3.94438892.90569244-4.15206837 1.27314988c-1.39524187 2.46867008-8.92730429 23.36968281-17.4453809 24.51791032-5.67871775.76548493-13.26052348-4.1697247-22.74541718-14.80562892-3.15565123-3.13238427-4.35778109-6.66729638-3.6063895-10.6047362.71020628-3.72162117 4.30291227-6.16285517 8.0245334-5.4526488 1.58688459.30282913 3.01598772 1.15597838 4.03553792 2.40914466z"/>
        <path fill="#FFF" d="M436.92285015 111.42004828l10.8731915 11.96853478c.769654 2.50317776.56597993 4.94812095-.61102224 7.33482964-1.17700203 2.38670864-3.53333997 4.71231162-7.06901372 6.97680877l-11.5606823-10.82748581c-3.64046656-3.98024845-5.08500409-7.9390926-4.3336125-11.87653241.7633931-4.00033064 4.62515432-6.62438698 8.62548493-5.86099379 1.57031556.2996673 3.00071465 1.10154005 4.0756901 2.2848063z"/>
        <path fill="#A365FB" d="M482.1814003 113.57091237l2.74344493 2.32998088-3.61867842.31428701-.53075561-1.33972013z"/>
      </g>
    </g>
    <g>
      <path fill="url(#u)" d="M41.7969252 93.4041552L93.5045937 122.94879l38.1019863-21.556936-46.1918215-25.2238594z" opacity=".5" transform="translate(425.976085 277.975248)"/>
      <path fill="url(#v)" d="M16.1654655 78.4436274l36.615207 21.1323489 36.8968913-21.1323489V32.2462866H16.1654655z" transform="translate(425.976085 277.975248)"/>
      <path fill="url(#w)" d="M16.1654655 32.2439339l36.615207 21.1323489 36.8968913-21.1323489-36.4166012-21.1763653c-.2967629-.1725685-.6634603-.1719567-.9596457.001601L16.1654655 32.2439339z" transform="translate(425.976085 277.975248)"/>
      <path fill="url(#x)" d="M52.7806725 53.3762828l36.8968913-21.1323489-35.4666574-20.62397c-.4544112-.2642415-1.0369943-.1100785-1.3012357.3443326-.0844903.1452964-.1289982.3103753-.1289982.4784516v40.9335347z" transform="translate(425.976085 277.975248)"/>
      <path fill="url(#y)" d="M16.0256726 99.6804473l36.9311249-21.2402265V32.2511243L16.0256726 53.3978836z" transform="matrix(-1 0 0 1 494.958555 277.975248)"/>
      <path fill="url(#z)" d="M16.3599877 32.5129606L.1155453 42.8344002l36.9523555 20.6336073L53.204293 53.2324872z" transform="translate(425.976085 277.975248)"/>
      <path fill="url(#A)" d="M69.267326.54414971L52.7776616 10.9027879 89.692784 32.2804291l16.418847-11.0167528z" transform="translate(425.976085 277.975248)"/>
      <path fill="url(#A)" d="M16.1646597 32.2377421L2.6550118 24.1014813 39.7568747 2.56730748l13.0603702 8.34879622z" transform="translate(425.976085 277.975248)"/>
      <path fill="url(#z)" d="M67.3704474 61.4055231l-14.2823628-8.1957123 36.5247133-21.008724L103.7993 40.097356z" transform="translate(425.976085 277.975248)"/>
    </g>
    <g transform="matrix(-1 0 0 1 502.972133 254)">
      <ellipse cx="26.1937584" cy="25.4596445" fill="url(#B)" rx="15.4110624" ry="20.4483762" transform="scale(1 -1) rotate(30 121.21044295 0)"/>
      <ellipse cx="23.8426881" cy="26.4617442" fill="url(#C)" rx="15.4110624" ry="20.4483762" transform="scale(1 -1) rotate(30 122.59926106 0)"/>
      <path stroke="#FFF" stroke-linecap="round" stroke-linejoin="round" stroke-width="3.4425" d="M17.4270966 22.3315741l8.9069502 10.3427511 3.6954153-6.4665396"/>
    </g>
    <g transform="translate(262 334)">
      <path fill="url(#D)" d="M2 104.391376l39.151764 23.56782c1.0820771.651368 2.4360487.649247 3.5160806-.005506L103 92.5906745 62.6178104 68.5155168c-.5413775-.3227599-1.2168955-.3195001-1.755133.0084695L2 104.391376z" opacity=".2" transform="translate(9 11)"/>
      <g opacity=".5" transform="matrix(-1 0 0 1 66 117)">
        <path fill="url(#D)" d="M11.255091 9.92229054l-.0017656.00559288-.0819743.03663632c-.0613964.02983611-.1234842.05756686-.1862004.08321746l-2.35457484 1.0523166-.64105356-1.17217038.02728161-.01479309c-1.03312326-.45753226-1.99791062-1.31386824-2.67060598-2.47901079-.9427476-1.63288675-1.07339644-3.45934267-.48536223-4.82212841l-1.05787148-.50832349L6.35437384.94325576l.00750934.00391393c1.90914448-1.01166802 4.53755222.07789432 5.92442792 2.48003362 1.4116658 2.44507687 1.0024498 5.3241731-.9140095 6.43064142-.0387563.02237594-.0778322.04385558-.1172106.06444581z"/>
        <ellipse cx="6.1990989" cy="6.61543606" fill="#FFF" rx="4.00687624" ry="5.11209404" transform="scale(1 -1) rotate(30 30.88824227 0)"/>
      </g>
      <g opacity=".5" transform="matrix(-1 0 0 1 35 102)">
        <path fill="url(#D)" d="M11.255091 9.92229054l-.0017656.00559288-.0819743.03663632c-.0613964.02983611-.1234842.05756686-.1862004.08321746l-2.35457484 1.0523166-.64105356-1.17217038.02728161-.01479309c-1.03312326-.45753226-1.99791062-1.31386824-2.67060598-2.47901079-.9427476-1.63288675-1.07339644-3.45934267-.48536223-4.82212841l-1.05787148-.50832349L6.35437384.94325576l.00750934.00391393c1.90914448-1.01166802 4.53755222.07789432 5.92442792 2.48003362 1.4116658 2.44507687 1.0024498 5.3241731-.9140095 6.43064142-.0387563.02237594-.0778322.04385558-.1172106.06444581z"/>
        <ellipse cx="6.1990989" cy="6.61543606" fill="#FFF" rx="4.00687624" ry="5.11209404" transform="scale(1 -1) rotate(30 30.88824227 0)"/>
      </g>
      <g opacity=".5" transform="matrix(-1 0 0 1 101 97)">
        <path fill="url(#D)" d="M11.255091 9.92229054l-.0017656.00559288-.0819743.03663632c-.0613964.02983611-.1234842.05756686-.1862004.08321746l-2.35457484 1.0523166-.64105356-1.17217038.02728161-.01479309c-1.03312326-.45753226-1.99791062-1.31386824-2.67060598-2.47901079-.9427476-1.63288675-1.07339644-3.45934267-.48536223-4.82212841l-1.05787148-.50832349L6.35437384.94325576l.00750934.00391393c1.90914448-1.01166802 4.53755222.07789432 5.92442792 2.48003362 1.4116658 2.44507687 1.0024498 5.3241731-.9140095 6.43064142-.0387563.02237594-.0778322.04385558-.1172106.06444581z"/>
        <ellipse cx="6.1990989" cy="6.61543606" fill="#FFF" rx="4.00687624" ry="5.11209404" transform="scale(1 -1) rotate(30 30.88824227 0)"/>
      </g>
      <g transform="translate(9 41)">
        <mask id="H" fill="#fff">
          <use xlink:href="#E"/>
        </mask>
        <use fill="url(#F)" xlink:href="#E"/>
        <path fill="url(#G)" d="M40.3097466 82.544951l51.8069888-31.3723725c.4267088-.2583989.7183889-.6911771.7977605-1.1836714l6.7259668-41.7341082-58.1401179 34.1868534-1.1905982 40.1032987z" mask="url(#H)"/>
      </g>
      <path fill="url(#D)" d="M0 41.8059118l39.1996048 22.7352303c1.0581482.6137114 2.3644073.6117021 3.4206625-.0052617L101 30.435992 60.5937668 7.2258802c-.5293239-.3040538-1.1810328-.30096473-1.7074506.00809325L0 41.8059118z" transform="translate(9 11)"/>
      <path fill="url(#I)" d="M59.760485 7.61054919L59 55l41.938658-24.5496756L60.5098054 7.18520464c-.2393421-.13773143-.5450207-.05535967-.6827521.18398248-.0422999.07350647-.0652075.15656448-.0665683.24136207z" transform="translate(9 11)"/>
      <path stroke="#6B8EF9" stroke-linecap="round" stroke-width="3" d="M78.1635248 11.29837213L117.991517 34.4193678" opacity=".60000002"/>
      <path fill="url(#e)" d="M21.6801573 60.2417469L.94295019 21.9104389c-.51699823-.9556359-.17647571-2.1492263.76692923-2.68822L33.733319.9263322c.9590765-.5479472 2.1807605-.2146611 2.7287077.74441536a2.00928178 2.00928178 0 0 1 .0039093.00687397L68.1962827 57.7288759 39.1813903 70.2531037l-17.501233-10.0113568z"/>
      <path fill="url(#J)" d="M33.3153004 66.9610602L8.94295019 21.9104389c-.51699823-.9556359-.17647571-2.1492263.76692923-2.68822L41.733319.9263322c.9590765-.5479472 2.1807605-.2146611 2.7287077.74441536a2.00928178 2.00928178 0 0 1 .0039093.00687397L76.1962827 57.7288759 45.100822 73.7660715l-11.7855216-6.8050113z"/>
      <path fill="url(#e)" d="M42.0800169 72.0714494L14.9429502 21.9104389c-.5169982-.9556359-.1764757-2.1492263.7669292-2.68822L47.733319.9263322c.9590765-.5479472 2.1807605-.2146611 2.7287077.74441536a2.00928178 2.00928178 0 0 1 .0039093.00687397L82.1962827 57.7288759 52.1734186 75.5492267c-1.2449865.7389734-2.79211.7475253-4.0451897.0223603l-6.048212-3.5001376z"/>
      <ellipse cx="51.5" cy="46" fill="#FFF" opacity=".40000001" rx="9.5" ry="10" transform="rotate(-7 51.5 46)"/>
      <path fill="#0048A1" d="M40.7649348 69.5591526l1.3749027 2.6490511 6.2311434 3.4982023c1.2458709.6994396 2.7702161.6812356 3.9990285-.0477569l30.0773648-17.843388-4.9207917-8.3294392-36.7616477 20.0733307z" opacity=".2"/>
    </g>
    <path stroke="#F9FAFF" stroke-width="3" d="M258.389215 228.20482l13.226261 7.804685c1.462886.863235 2.360609 2.43534 2.360609 4.13393v20.22435c0 .883656-.716344 1.6-1.6 1.6-.283869 0-.562628-.075523-.807675-.218819l-13.215351-7.727961c-1.472135-.860863-2.376974-2.438179-2.376974-4.143543v-20.294666c0-.883655.716344-1.6 1.6-1.6.286016 0 .566803.076669.81313.222024zM265.476085 223.033457c2.788681 1.645573 4.5 4.642457 4.5 7.880459v3.652161l-9-5.262944v-3.700028c0-1.647839 1.335837-2.983677 2.983676-2.983677.533362 0 1.056974.142971 1.516324.414029z"/>
    <g>
      <path fill="url(#u)" d="M.46941425 116.97979l73.95947655 42.065744 54.4987432-30.692833-66.069947-35.9138098z" opacity=".2" transform="translate(94.735066 252.16917)"/>
      <path fill="url(#K)" d="M60.1935544 96.2957097L112.5657 126.384014l52.77505-30.0883043V30.5197914H60.1935544z" transform="matrix(-1 0 0 1 224.132114 252.16917)"/>
      <path fill="url(#z)" d="M60.1935544 30.5164417L112.5657 60.6047461l52.77505-30.0883044L113.389572.44470727c-.509373-.29484843-1.137763-.29380245-1.646152.00274008L60.1935544 30.5164417z" transform="matrix(-1 0 0 1 224.132114 252.16917)"/>
      <path fill="url(#v)" d="M59.9936032 126.53276l52.8240158-30.2419007v-65.76418l-52.8240158 30.108822z" transform="translate(51.320892 252.16917)"/>
      <path fill="url(#v)" d="M113 126l27.872305-15.996978V82.6030157L113 98.5445479z" opacity=".2" transform="matrix(-1 0 0 1 224.132114 252.16917)"/>
      <g transform="translate(0 330)">
        <ellipse cx="11.5" cy="10" fill="url(#L)" rx="11.5" ry="8"/>
        <ellipse cx="11.5" cy="8" fill="url(#M)" rx="11.5" ry="8"/>
      </g>
      <g transform="translate(401 349)">
        <ellipse cx="11.5" cy="10" fill="url(#L)" rx="11.5" ry="8"/>
        <ellipse cx="11.5" cy="8" fill="url(#M)" rx="11.5" ry="8"/>
      </g>
      <g transform="translate(20 300)">
        <ellipse cx="11.5" cy="10" fill="url(#L)" rx="11.5" ry="8"/>
        <ellipse cx="11.5" cy="8" fill="url(#M)" rx="11.5" ry="8"/>
      </g>
      <g transform="translate(15 294)">
        <ellipse cx="11.5" cy="10" fill="url(#L)" rx="11.5" ry="8"/>
        <ellipse cx="11.5" cy="8" fill="url(#M)" rx="11.5" ry="8"/>
      </g>
      <path fill="#FFF" d="M140.430936 269.2897985l-52.8371091 29.8311006v23.1635946l-2.0920886-2.2548847h-1.8881456l-1.9372282-2.9348602-2.1399664.5269429v-22.5827931l54.1875119-29.812572z" opacity=".30000001"/>
    </g>
    <g>
      <path fill="url(#k)" d="M153.2 285.819589l43.475225-28.58936-107.0116441-65.504458c-13.7968298-8.445378-31.2482919-8.083697-44.6833646.926062-7.7388958 5.189818-9.8053315 15.670611-4.6155133 23.409507 1.3786601 2.055815 3.19279 3.783091 5.3137168 5.059316L153.2 285.819589z" opacity=".1" transform="translate(52 23)"/>
      <path fill="#442959" d="M110.7005769 219.097727c-8.970226 6.949566-13.0715139 11.705153-12.3038638 14.266761 1.1514751 3.842413 8.0498445.185948 13.1109446-3.832625 3.3740668-2.679048 5.338389-4.279663 5.8929667-4.801843l3.4354187-1.17598-1.990609-7.799155-8.1448572 3.342842z"/>
      <path fill="url(#N)" d="M81.7302101 58.9595243l3.1368912 117.0902147c-2.1102871 1.137646-4.8109327 1.422057-8.1019369.853234-3.2910041-.568822-4.4404573-.853234-3.4483594-.853234L62.5336464 84.1013387l5.2718452 82.3703583c-1.4158698 2.277411-3.6197421 3.454644-6.6116167 3.531699-2.9918746.077055-4.4878119-.635278-4.4878119-2.136999L46.5475715 92.1698931c-1.5348457-12.642417-2.2093955-21.4966852-2.0236496-26.5628047.1857459-5.0661195.1857459-9.357517 0-12.8741923l17.325897.5211137h19.8803912v5.7055145z" transform="translate(52.550615 50.475983)"/>
      <path stroke="#F9FAFF" stroke-linecap="round" d="M135.9760848 169.8131489v-18.69338987c0-1.9331793-1.3358374-3.50033077-2.9836764-3.50033077-.5333619 0-1.0569735.16772796-1.5163236.48572238-2.788681 1.93052102-4.5 5.44634637-4.5 9.24504099v17.36921947"/>
      <path fill="url(#O)" d="M.73597109 61.3127452l6.07692864 4.0132278.57230814-8.0323086L30.6862273 43.2095398V8.54316771l5.8997492-5.06376005L29.945399.16266831.73597109 17.3812393z" transform="translate(113.228667 153.475983)"/>
      <path fill="url(#P)" d="M.73597109 45.8537448l6.64057748-4.1519591V3.47940766L.73597109.16266831z" transform="translate(142.438095 153.475983)"/>
      <path fill="url(#Q)" d="M6.63572028 61.3127452l6.07692862 4.0132278.5723082-8.0323086 23.3010194-14.0841246V8.54316771C25.5180694 15.6960894 18.0118558 19.8545478 14.0673357 21.0185428c-3.9445201 1.1639951-6.42172524-.0484394-7.43161542-3.6373035v43.9315059z" transform="translate(107.328919 153.475983)"/>
      <path fill="url(#e)" d="M.83622191 65.3127452L30.7864781 47.2095398V3.36675309L.83622191 21.3812393z" transform="translate(118.927915 153.475983)"/>
      <path stroke="#F9FAFF" stroke-linecap="round" d="M137.9760848 169.8131489v-18.69338987c0-1.9331793-1.3358374-3.50033077-2.9836764-3.50033077-.5333619 0-1.0569735.16772796-1.5163236.48572238-2.788681 1.93052102-4.5 5.44634637-4.5 9.24504099v17.36921947"/>
      <path fill="#FFCDB8" d="M90.58797573 74.55727569L82.92698069 88.3240742l-19.48863033 3.10305295c-1.30827788-3.310494-2.15178791-4.91002516-2.53053004-4.79859323-.5681132.1671479-.07971415 4.22650265-.42824594 4.32717611-1.08803192.31427806-2.67377458.38782345-4.75722792.220636-.50325537.20924952-.74096345.52810448-.71312415.9565647.04175895.64269026.67981247.52968603.70294519.862392.10426102 1.49953394.54732083 4.24589442 1.23180594 4.7518704.66611977.49240025 3.04391958.06143372 7.13339933-1.29289952 12.94586314.00988841 20.17703281-.34246533 21.69350907-1.0570611 1.51647622-.71459568 5.47050798-5.80510335 11.86209523-15.27152291l-7.04500134-5.56841392z"/>
      <path fill="#793BE3" d="M97.1270693 103.3299568c.0351513 5.2240988 3.7225271 9.211602 11.0621274 11.9625096 4.8351877 1.8122452 11.5240885 2.7957364 18.0477034 2.2422321 2.9756113-.2524695 5.7121935-1.3851449 8.2097466-3.3980262v-4.0188207l-37.3195774-6.7878948z"/>
      <path fill="#FFF" d="M141.100678 63.9191737c1.4257397 2.3632588 2.6821031 11.4858368 3.7690901 27.367734-1.656263 1.8000002-3.6403619 2.7000004-5.9522967 2.7000004s-4.0451569-.5582873-5.1996661-1.6748617l1.0400874 18.8622783c-2.344001 2.8616521-6.367481 4.2580279-12.0704399 4.1891272-8.5544384-.1033511-16.9737463-3.1393535-20.3723565-5.2583121-3.3986101-2.1189587-5.2095674-4.0946948-5.1819152-7.4239624.0184348-2.2195117.2451803-9.0518492.6802367-20.4970126-2.0607083-.5392412-3.6381812-1.1085365-4.7324189-1.707886-1.0942378-.5993494-2.6661742-1.7550876-4.7158095-3.4672146 2.8029116-12.7876499 5.1606225-20.48917078 7.0731326-23.10456257 2.8687652-3.92308767 15.9748323-3.9943092 24.9747896-1.9971546 8.9999574 1.9971546 18.5489568 8.46693838 20.6875664 12.01182667z"/>
      <path fill="url(#s)" d="M81.1758364 41.9850325l-4.0518368-16.821279c1.1018665 11.6489564 1.7771726 18.7938637 2.0259184 21.4347217.2487458 2.6408581.3731187 8.0831098.3731187 16.3267551.6487217-.3657535 1.1329079-.6800488 1.4525585-.9428859.3196507-.262837.7335605-.6870132 1.2417293-1.2725285l-1.0414881-18.7247834z" opacity=".14999999" transform="translate(52.550615 50.475983)"/>
      <path fill="#FFCDB8" d="M134.5092668 92.9312908l2.1366633 12.4123334-2.1366633 35.7082212c-3.0111007 4.2589036-4.2225243 6.4869997-3.6342707 6.6842883.4618234.1548865 1.6732469-.2710582 3.6342707-1.2778341-.4148486 2.9799416-.4148486 4.7742244 0 5.3828494 1.2063934 1.769901 3.6627309-.805348 5.1703358-1.6526501.5935425-.3335821.8138654-3.3791333.6609687-9.1366535 2.5057099-18.5141107 3.7585649-28.6506754 3.7585649-30.409694V92.0345479c-2.1077953.983795-3.6908212 1.5234275-4.7490776 1.6188975-1.0582564.0954701-2.6718537-.1452482-4.8407918-.7221546z"/>
      <path fill="#442959" d="M127.4921245 226.85293l1.2043228 4.558c2.7643618 8.71725 5.1428789 13.522604 7.1355513 14.416061 2.9890085 1.340185 6.9511116-1.551873 3.962103-10.187854-1.9926723-5.757321-3.1014446-8.686056-3.3263168-8.786207-1.7311588.443207-3.0447208.664811-3.940686.664811-.8959651 0-2.5742899-.221604-5.0349743-.664811z"/>
      <path fill="url(#s)" d="M45.3355249 31.7305329l1.2251108-16.8472566-5.0132421 15.5896749c1.2205202.419833 2.0033249.683962 2.3484141.7923869.3450893.1084249.824995.2634898 1.4397172.4651948z" opacity=".14999999" transform="translate(52.550615 50.475983)"/>
      <g transform="translate(100.08 23)">
        <g transform="translate(4.07873 2.97534)">
          <path fill="#FFC5AC" d="M12.7279756 19.6601096h.0249829c1.9586684 0 3.5464828 1.5878145 3.5464828 3.5464829v3.89009c0 1.9586684-1.5878144 3.5464829-3.5464828 3.5464829h-.0249829c-1.9586684 0-3.54648288-1.5878145-3.54648288-3.5464829v-3.89009c0-1.9586684 1.58781448-3.5464829 3.54648288-3.5464829z"/>
          <mask id="S" fill="#fff">
            <use xlink:href="#R"/>
          </mask>
          <use fill="#FFD4C2" xlink:href="#R"/>
          <path stroke="#E38775" stroke-linecap="round" stroke-width=".9" d="M4.70211914 22.9161842c1.2814821.6546368 2.49576006.501499 3.64283388-.4594135" mask="url(#S)" transform="rotate(-5 6.523536 22.956771)"/>
        </g>
        <path fill="url(#T)" d="M1.09971273.90118394c2.16356793-2.05706273 9.05484697 0 14.93619907.36820847 3.9209015.24547231 6.9202114 1.72432303 8.9979296 4.43655216 1.7234171 2.49131113 2.2596799 5.31764353 1.6087885 8.47899733-.5991109 2.9098578-2.1718404 6.2279275-4.7181885 9.9542089l-.0000144-.0000099c-.2804332.4103811-.8404487.5157246-1.2508298.2352914a.89998737.89998737 0 0 1-.1848842-.1684303l-3.1127332-3.7520568c1.1210264-4.1664107.6440354-6.5893363-1.4309731-7.2687768-3.1125127-1.0191607-9.54431012.676115-12.68172604-1.8355113C.12586474 8.8380307-1.0638552 2.95824667 1.09971273.90118394z"/>
        <ellipse cx="19.5472463" cy="21.4016211" fill="#FFD4C2" rx="1.73065146" ry="2.65584448"/>
      </g>
    </g>
    <g>
      <path fill="url(#u)" d="M.31200588 77.986527l49.15869402 28.043829 36.2237153-20.4618889-43.914755-23.9425397z" opacity=".2" transform="translate(72.41672 345.433554)"/>
      <path fill="url(#U)" d="M40.0088895 64.1971398L74.819118 84.2560094l35.078027-20.0588696V20.3465276H40.0088895z" transform="matrix(-1 0 0 1 158.423142 345.433554)"/>
      <path fill="url(#i)" d="M40.0088895 20.3442945L74.819118 40.4031641l35.078027-20.0588696L75.3695998.29814272c-.3402064-.19751849-.7603491-.1968181-1.099895.00183353L40.0088895 20.3442945z" transform="matrix(-1 0 0 1 158.423142 345.433554)"/>
      <path fill="url(#V)" d="M39.8759878 84.3551735l35.110573-20.1612673V20.3511196l-35.110573 20.072548z" transform="translate(43.560594 345.433554)"/>
      <path fill="#FFF" d="M102.7894243 356.513973l-35.1192759 19.8874004v15.4423964l-1.2070127-1.5274419-1.1397515.1585239-1.5530124-1.7396166h-1.4557599v-15.0551955l36.0168492-19.87504799z" opacity=".2"/>
    </g>
    <g>
      <path fill="url(#u)" d="M.25016687 62.1003826L39.6656963 84.4315795l29.0442402-16.293726-35.2109297-19.0653557z" opacity=".2" transform="translate(193.57737 336.089806)"/>
      <path fill="url(#U)" d="M32.0791997 51.1199447l27.9109039 15.9728035 28.1256252-15.9728035V16.2018646H32.0791997z" transform="matrix(-1 0 0 1 262.537474 336.089806)"/>
      <path fill="url(#i)" d="M32.0791997 16.2000863l27.9109039 15.9728036 28.1256252-15.9728036L60.4282217.23553066c-.2710163-.1562674-.6048988-.1557127-.8753944.00145431L32.0791997 16.2000863z" transform="matrix(-1 0 0 1 262.537474 336.089806)"/>
      <path fill="url(#V)" d="M31.9726388 67.1717122l28.1517208-16.0543424V16.2055211L31.9726388 32.1892168z" transform="translate(170.440476 336.089806)"/>
      <path fill="#FFF" d="M217.9302592 344.91310292l-28.1586988 15.83626328v12.2967231l-.967785-1.2162964-.9138548.126232-1.2452081-1.3852503h-1.1672309v-11.9883964l28.8783746-15.82642706z" opacity=".2"/>
    </g>
    <ellipse cx="277.705997" cy="53.5" fill="#FFF" opacity=".5" rx="2.5" ry="3.5" transform="scale(1 -1) rotate(30 477.3707152 0)"/>
    <ellipse cx="526.705997" cy="51.5" fill="#FFF" rx="2.5" ry="3.5" transform="scale(1 -1) rotate(30 718.90661359 0)"/>
    <ellipse cx="580.705997" cy="235.5" fill="#FFF" opacity=".1" rx="2.5" ry="3.5" transform="scale(1 -1) rotate(30 1459.60396218 0)"/>
    <ellipse cx="381" cy="63.5" fill="#FFF" opacity=".2" rx="4" ry="5.5" transform="scale(1 -1) rotate(30 617.98522628 0)"/>
    <ellipse cx="41" cy="183.5" fill="#FFF" opacity=".2" rx="4" ry="5.5" transform="scale(1 -1) rotate(30 725.83132319 0)"/>
    <g stroke="#FFF" stroke-linecap="round" stroke-width="2.56608">
      <path d="M208.9865778 74.84448198l11.1897988 6.50080102M214.032429 71.25525559V84.9007089"/>
    </g>
    <g stroke="#FFF" stroke-linecap="round" stroke-width="2.56608" opacity=".5">
      <path d="M251.9865778 3.84448198l11.1897988 6.50080102M257.032429.25525559V13.9007089"/>
    </g>
    <g stroke="#FFF" stroke-linecap="round" stroke-width="2.56608" opacity=".5">
      <path d="M578.9865778 145.84448198l11.1897988 6.50080102M584.032429 142.25525559v13.64545331"/>
    </g>
    <path fill="#FA8B8E" d="M260.162695 103.146566l93.075833 53.699288-44.988132 26.155041-92.326844-53.750698z"/>
    <g>
      <path fill="#FFA298" d="M215.90685778 129.03235543v19.24602187c0 6.7574016 3.53091679 13.023612 9.31103182 16.5240045 2.8976329 1.7547838 6.6691618.8283215 8.4239456-2.0693114.5802946-.9582267.8870862-2.057076.8870862-3.1773171v-19.6124532l-18.62206362-10.91094467z"/>
      <path fill="#F8F0FD" d="M234.3192289 139.7794819v19.2460218c0 6.7574016 3.5309168 13.0236121 9.3110318 16.5240045 2.8976329 1.7547838 6.6691619.8283216 8.4239457-2.0693113.5802946-.9582267.8870861-2.0570761.8870861-3.1773172v-19.6124532l-18.6220636-10.9109446z"/>
      <path fill="#FFA298" d="M252.7316001 150.5266083v19.2460218c0 6.7574016 3.5309167 13.0236121 9.3110317 16.5240045 2.897633 1.7547838 6.6691619.8283216 8.4239457-2.0693113.5802946-.9582267.8870861-2.0570761.8870861-3.1773172V161.437553l-18.6220635-10.9109447z"/>
      <path fill="#F8F0FD" d="M271.1439712 161.2737347v19.2460219c0 6.7574016 3.5309168 13.0236121 9.3110318 16.5240045 2.8976329 1.7547838 6.6691618.8283215 8.4239456-2.0693114.5802946-.9582266.8870862-2.057076.8870862-3.1773171v-19.6124532l-18.6220636-10.9109447z"/>
      <path fill="#FFA298" d="M289.5563423 172.0208612v19.2460218c0 6.7574016 3.5309168 13.0236121 9.3110318 16.5240045 2.8976329 1.7547838 6.6691619.8283216 8.4239457-2.0693113.5802946-.9582267.8870861-2.0570761.8870861-3.1773172v-19.6124532l-18.6220636-10.9109446z"/>
    </g>
    <path fill="#F8F0FD" d="M289.751237 172.064023l45.191028-25.850387-18.13955-10.395622-45.552084 25.399117zM252.751237 151.064023l45.191028-25.850387-18.13955-10.395622-45.552084 25.399117z"/>
  </g>
</svg>

